<svg width="40" height="41" viewBox="0 0 40 41" fill="none" xmlns="http://www.w3.org/2000/svg">
<g clip-path="url(#clip0_56_22)">
<path fill-rule="evenodd" clip-rule="evenodd" d="M13.5855 0.284655C13.416 0.421921 13.4001 0.507234 13.3487 1.55419C13.2865 2.82169 13.1839 3.23997 12.7097 4.16091C12.2863 4.98309 11.3678 5.91723 10.5779 6.32895C10.2727 6.48809 9.17148 6.98567 8.1307 7.43489C5.51851 8.56215 4.79796 9.00965 3.62171 10.2349C1.82125 12.1102 0.911246 14.3893 0.915542 17.0125C0.917652 18.3183 1.03609 18.998 1.46695 20.1765L1.75257 20.9578L1.79421 25.6236L1.83585 30.2895L2.00726 30.4609C2.25351 30.707 2.63226 30.6887 2.86382 30.4196L3.04679 30.2068V25.526V20.845L2.84625 20.3936C1.30578 16.9254 2.3521 12.6876 5.33031 10.3326C6.1532 9.68192 6.52507 9.48692 8.94093 8.43911C10.0557 7.95559 11.1572 7.44559 11.3887 7.30575C12.7929 6.45739 13.9099 4.97637 14.3794 3.34059C14.5015 2.91528 14.5587 2.44841 14.5884 1.63747C14.628 0.551452 14.6242 0.514968 14.4494 0.328874C14.2294 0.0946554 13.8444 0.0749679 13.5855 0.284655ZM25.5435 0.352312C25.381 0.556609 25.3747 0.620905 25.4142 1.66091C25.49 3.65559 26.0928 5.05669 27.4345 6.35708C28.2541 7.15137 28.7512 7.442 30.7573 8.30036C31.7373 8.71966 32.8202 9.20223 33.164 9.37278C34.2996 9.9363 35.3046 10.7533 36.0266 11.7C36.2539 11.998 36.5377 12.2824 36.6573 12.3319C36.9573 12.4562 37.2999 12.3067 37.4289 11.9953C37.5163 11.7843 37.5066 11.7175 37.3434 11.41C37.1235 10.9954 35.9612 9.74848 35.3683 9.29106C34.5816 8.68411 33.6929 8.21091 31.9019 7.44536C29.3035 6.33466 28.9789 6.1545 28.2421 5.41364C27.1538 4.31934 26.7364 3.30684 26.6509 1.55419C26.5998 0.506999 26.5839 0.421921 26.4144 0.284655C26.1396 0.0621554 25.7502 0.0924679 25.5435 0.352312ZM37.6207 13.5861C37.3687 13.7843 37.3728 13.9596 37.6577 15.1375C37.8012 15.7304 37.8372 16.0995 37.8371 16.9734C37.8369 18.2513 37.7056 18.97 37.2802 20.0203L36.9954 20.7234L36.973 25.4638L36.9507 30.2041L37.1348 30.4182C37.387 30.7115 37.7685 30.712 38.0201 30.4196L38.203 30.2068V25.6544V21.1019L38.4016 20.6133C38.9635 19.2304 39.2169 17.5151 39.0661 16.1147C38.9357 14.9033 38.6456 13.8137 38.3952 13.5945C38.143 13.3739 37.894 13.3711 37.6207 13.5861ZM8.68539 16.2557L8.51554 16.4366V21.4863C8.51554 24.9337 8.48765 26.6674 8.42757 26.95C8.37914 27.1777 8.20336 27.6357 8.03695 27.9678C7.675 28.6899 7.65296 28.9684 7.94015 29.1943C8.33671 29.5063 8.68492 29.3605 9.03632 28.7353L9.25125 28.3529L9.51578 28.8302L9.78031 29.3075L9.49812 33.9998C9.34289 36.5806 9.19547 38.9207 9.17046 39.2C9.13054 39.6459 9.14609 39.7345 9.29789 39.9267C9.44421 40.112 9.51921 40.142 9.78609 40.122C10.2684 40.0859 10.3755 39.881 10.4308 38.8875C10.4559 38.4363 10.4938 37.9529 10.5152 37.8132L10.5539 37.5593H17.1164H23.6789L23.8706 37.3675C24.1394 37.0987 24.133 36.6887 23.8566 36.4713C23.652 36.3104 23.6084 36.3093 17.1378 36.3093H10.6249V36.0086C10.6249 35.8433 10.6477 35.439 10.6755 35.1102L10.7259 34.5125L12.7653 34.5113C15.0504 34.51 15.4306 34.4566 16.3116 34.0129C16.603 33.8661 17.0212 33.5846 17.2408 33.3871L17.6401 33.0281H19.9999H22.3598L22.7368 33.3671C22.9441 33.5535 23.3572 33.834 23.6548 33.9903C24.5362 34.4535 24.9248 34.51 27.2345 34.5113L29.2739 34.5125L29.3244 35.1102C29.3522 35.439 29.3749 35.8433 29.3749 36.0086V36.3093H27.5886C25.8997 36.3093 25.791 36.3182 25.5964 36.4713C25.3199 36.6887 25.3135 37.0987 25.5823 37.3675L25.7741 37.5593H27.612H29.4501L29.486 37.7351C29.5058 37.8318 29.543 38.3152 29.5687 38.8093C29.6261 39.9132 29.7217 40.0984 30.2343 40.0984C30.5012 40.0984 30.5988 40.0585 30.7162 39.9013C30.8606 39.7078 30.8591 39.6357 30.629 35.9169C30.5002 33.834 30.3563 31.4968 30.3094 30.7234L30.2241 29.3172L30.4855 28.8337L30.747 28.3502L30.9627 28.734C31.315 29.3605 31.6628 29.5065 32.0597 29.1943C32.3474 28.9679 32.3248 28.6893 31.9598 27.9634C31.7916 27.629 31.6159 27.1487 31.5692 26.8961C31.5137 26.5961 31.4843 24.6993 31.4843 21.4269C31.4843 16.493 31.4819 16.4143 31.325 16.246C31.1099 16.0151 30.6284 16.0116 30.4222 16.2393C30.2823 16.3938 30.272 16.5793 30.2511 19.3253L30.2288 22.2468H19.9999H9.77101L9.74875 19.3253C9.72781 16.5793 9.7175 16.3938 9.57765 16.2393C9.36836 16.0082 8.91007 16.0166 8.68539 16.2557ZM9.76554 24.3562V25.2156L10.371 25.2168C10.704 25.2174 11.0644 25.2624 11.1718 25.3167C11.4511 25.4579 11.585 25.771 11.482 26.0418C11.3503 26.3883 11.1869 26.4604 10.5273 26.4631C10.1943 26.4645 9.92179 26.4779 9.92179 26.493C9.92179 26.5081 9.96039 26.6311 10.0076 26.7665L10.0934 27.0125H10.7002C11.465 27.0125 11.7187 27.1681 11.7187 27.6375C11.7187 28.0371 11.4467 28.2625 10.9646 28.2625H10.6223L10.8294 28.6711C11.0337 29.0744 11.0357 29.094 10.9827 30.185L10.9289 31.2904L11.2044 31.342C11.5303 31.4032 11.7187 31.6387 11.7187 31.9851C11.7187 32.2847 11.4194 32.5593 11.0929 32.5593C10.9156 32.5593 10.8705 32.6013 10.83 32.8035C10.7295 33.3058 10.5802 33.274 12.9101 33.2465C14.9276 33.2227 15.0627 33.2118 15.4936 33.039C15.8543 32.8943 15.937 32.8299 15.8937 32.7275C15.7598 32.4106 15.7745 32.2632 15.9616 32.0458C16.1227 31.8585 16.2327 31.8135 16.6117 31.7797C17.0482 31.7408 17.0754 31.7255 17.2391 31.4265C17.3333 31.2547 17.4334 31.0211 17.4615 30.9075L17.5127 30.7009L16.8355 30.6731C16.2002 30.647 16.1462 30.6312 15.9625 30.4177C15.8105 30.241 15.7771 30.1362 15.8133 29.949C15.8937 29.5315 16.0978 29.4343 16.8934 29.4343H17.5976L17.5473 29.1804C17.5196 29.0408 17.4401 28.7771 17.3706 28.5945L17.2443 28.2625H16.7898C16.2331 28.2625 15.9759 28.1536 15.8575 27.8675C15.7566 27.624 15.8054 27.39 15.9967 27.1987C16.1142 27.0812 16.1127 27.0633 15.9767 26.964C15.5999 26.6884 14.9516 26.5256 14.0669 26.4843C13.2678 26.4469 13.1537 26.4233 12.9927 26.2622C12.6476 25.9172 12.8283 25.3711 13.3289 25.2455C13.6473 25.1656 14.9864 25.2719 15.4687 25.4154C16.1647 25.6223 16.9544 26.0802 17.4472 26.5624L17.9072 27.0125H19.9999H22.0926L22.5527 26.5624C23.0355 26.0898 23.8077 25.6379 24.5312 25.4045C24.8984 25.286 25.3442 25.2612 27.5976 25.2343L30.2343 25.2029V24.3499V23.4968H19.9999H9.76554V24.3562ZM25.1098 26.5461C24.7499 26.6175 24.268 26.8065 24.0016 26.9807C23.8368 27.0885 23.8325 27.1096 23.943 27.2675C24.0087 27.3611 24.0624 27.5505 24.0624 27.6882C24.0624 28.0663 23.7677 28.2625 23.1997 28.2625H22.7487L22.5852 28.7464C22.4953 29.0125 22.4218 29.2762 22.4218 29.3323C22.4218 29.4081 22.5891 29.4343 23.0723 29.4343C23.6511 29.4343 23.7414 29.4543 23.8926 29.6151C24.0725 29.8068 24.1128 30.1318 23.9859 30.3688C23.8794 30.5679 23.4966 30.6843 22.9485 30.6843H22.483L22.5362 30.8992C22.5655 31.0173 22.6667 31.2547 22.761 31.4265C22.9205 31.7171 22.9625 31.7427 23.3587 31.7912C23.8945 31.8568 24.0827 32.0541 24.0493 32.5154L24.0263 32.8328L24.4936 33.0281C24.9472 33.2177 25.023 33.2241 27.0898 33.2475L29.2187 33.2717L29.2176 33.0913C29.2153 32.7045 29.1307 32.5593 28.9076 32.5593C28.1501 32.5593 28.0515 31.4816 28.7962 31.3419L29.0724 31.29L29.0179 30.2163C28.9648 29.1711 28.9687 29.1307 29.1648 28.7025L29.3662 28.2625H29.0296C28.5534 28.2625 28.2812 28.0351 28.2812 27.6375C28.2812 27.1681 28.5348 27.0125 29.2997 27.0125H29.9065L29.9923 26.7665C30.0394 26.6311 30.078 26.5081 30.078 26.493C30.078 26.4358 25.4147 26.4857 25.1098 26.5461ZM12.9261 27.2043C12.7961 27.3342 12.7343 27.4834 12.7343 27.6673C12.7343 28.0561 13.0188 28.2625 13.5546 28.2625C14.1069 28.2625 14.3749 28.0583 14.3749 27.6375C14.3749 27.2125 14.1078 27.0125 13.5405 27.0125C13.1959 27.0125 13.0824 27.0479 12.9261 27.2043ZM25.8308 27.1744C25.6719 27.2993 25.6249 27.4052 25.6249 27.6375C25.6249 28.0583 25.8929 28.2625 26.4452 28.2625C26.9976 28.2625 27.2655 28.0583 27.2655 27.6375C27.2655 27.2166 26.9976 27.0125 26.4452 27.0125C26.1502 27.0125 25.9794 27.0575 25.8308 27.1744ZM18.6206 28.3762C18.6446 28.4388 18.7081 28.7025 18.7618 28.9622L18.8593 29.4343H19.9999H21.1405L21.238 28.9622C21.2917 28.7025 21.3552 28.4388 21.3792 28.3762C21.4165 28.2792 21.2135 28.2625 19.9999 28.2625C18.7863 28.2625 18.5834 28.2792 18.6206 28.3762ZM18.7499 30.8397C18.7499 30.9252 18.683 31.1713 18.6012 31.3866L18.4524 31.7781H19.9999H21.5474L21.3987 31.3866C21.3169 31.1713 21.2499 30.9252 21.2499 30.8397C21.2499 30.6911 21.1956 30.6843 19.9999 30.6843C18.8042 30.6843 18.7499 30.6911 18.7499 30.8397ZM13.0714 31.3838C12.6866 31.5484 12.6103 32.1379 12.9402 32.3974C13.2459 32.6379 13.9716 32.6271 14.2051 32.3786C14.4269 32.1423 14.4333 31.6989 14.2175 31.5036C14.0379 31.3411 13.3415 31.2682 13.0714 31.3838ZM26.0155 31.3606C25.7521 31.4668 25.6249 31.6532 25.6249 31.9329C25.6249 32.3644 25.8723 32.5593 26.4202 32.5593C26.9752 32.5593 27.2655 32.3591 27.2655 31.9764C27.2655 31.5604 27.0512 31.3677 26.5559 31.3383C26.3231 31.3246 26.08 31.3346 26.0155 31.3606Z" fill="#FF7F00"/>
</g>
<defs>
<clipPath id="clip0_56_22">
<rect width="40" height="40" fill="white" transform="translate(0 0.137695)"/>
</clipPath>
</defs>
</svg>
