<svg width="40" height="41" viewBox="0 0 40 41" fill="none" xmlns="http://www.w3.org/2000/svg">
<g clip-path="url(#clip0_58_42)">
<path fill-rule="evenodd" clip-rule="evenodd" d="M13.8639 0.329492C13.6741 0.51918 13.6721 0.536445 13.6721 1.96207V3.40285L12.715 3.43113C11.894 3.45543 11.7025 3.4866 11.3674 3.65035C9.78245 4.42488 9.42105 6.52191 10.6592 7.75996C11.2326 8.33348 11.7113 8.49707 12.8157 8.49707H13.6721V11.1842V13.8712L12.7541 13.9008C11.6787 13.9355 11.1987 14.1089 10.6496 14.6611C10.1107 15.203 9.96089 15.5963 9.9623 16.4658C9.96331 17.1182 9.98878 17.2564 10.1728 17.6071C10.4368 18.1103 11.0618 18.6771 11.5436 18.8504C11.7695 18.9316 12.2575 18.9993 12.7932 19.0236L13.6721 19.0636V20.0589C13.6721 20.9475 13.6894 21.0762 13.834 21.26C14.0579 21.5446 14.4581 21.5446 14.682 21.26C14.8321 21.0691 14.8439 20.9521 14.8439 19.6549C14.8439 18.2734 14.8415 18.2532 14.6521 18.0639C14.4671 17.8788 14.4225 17.8721 13.3826 17.8716C12.0821 17.8711 11.8202 17.8078 11.4574 17.4062C10.7993 16.6778 10.9739 15.6332 11.8223 15.2225C12.1168 15.08 12.3028 15.0596 13.3096 15.0596C14.4273 15.0596 14.466 15.054 14.6521 14.8678C14.842 14.678 14.8439 14.6613 14.8439 13.2271V11.7783H18.7928H22.7417L22.9334 11.5865C23.2343 11.2857 23.18 10.9136 22.8071 10.7207C22.6218 10.625 21.9596 10.6064 18.715 10.6064H14.8439V9.21074C14.8439 7.32691 14.9029 7.40348 13.4515 7.40285C12.1854 7.40238 11.8577 7.32613 11.4743 6.9427C10.856 6.32449 10.9195 5.37965 11.6148 4.84879C11.8951 4.63473 11.9295 4.62902 13.1578 4.59082C14.4225 4.55152 14.6971 4.49184 14.7957 4.23504C14.8222 4.1659 14.8439 3.47934 14.8439 2.70941V1.30957H20.0002H25.1564V2.67309C25.1564 4.05699 25.2082 4.36605 25.46 4.48613C25.5293 4.51918 26.1515 4.56504 26.8425 4.58809C28.0689 4.62887 28.1057 4.63512 28.3856 4.84879C29.0809 5.37965 29.1443 6.32449 28.526 6.9427C28.1427 7.32613 27.815 7.40238 26.5489 7.40285C25.4878 7.40332 25.4792 7.40473 25.3184 7.60918C25.1856 7.77801 25.1564 7.92613 25.1564 8.43301C25.1564 8.98504 25.1769 9.07152 25.3482 9.24277C25.4537 9.34824 25.631 9.43457 25.7424 9.43457C26.037 9.43457 26.3283 9.11004 26.3283 8.78191V8.51277L27.3244 8.48465C28.2525 8.4584 28.3488 8.44082 28.7349 8.2277C29.5764 7.76301 30.0095 7.07254 30.0603 6.11426C30.1035 5.30004 29.9078 4.7466 29.3888 4.21512C28.7936 3.60574 28.4148 3.46457 27.2853 3.43113L26.3283 3.40285V1.96207C26.3283 0.536445 26.3263 0.51918 26.1365 0.329492L25.9448 0.137695H20.0002H14.0556L13.8639 0.329492ZM17.2917 3.56355C15.5897 4.15176 15.0353 6.31176 16.2418 7.65488C16.4305 7.86504 16.7645 8.13129 16.9839 8.2466C17.3629 8.44574 17.4491 8.45762 18.6976 8.48332C20.2063 8.51441 20.3127 8.47879 20.3127 7.94254C20.3127 7.47449 20.1431 7.4034 19.0257 7.40285C17.8943 7.40238 17.574 7.3234 17.1796 6.9477C16.6292 6.4234 16.5885 5.6466 17.081 5.06137C17.4105 4.66973 17.5389 4.63465 18.8007 4.59191C19.82 4.5573 20.0069 4.53113 20.1484 4.40293C20.3628 4.20871 20.3669 3.78566 20.1564 3.5752C20.014 3.43277 19.8979 3.41918 18.8478 3.42152C17.9494 3.42348 17.6065 3.4548 17.2917 3.56355ZM27.383 9.32777C23.9528 9.85676 22.1572 13.5371 23.5146 17.2566C23.766 17.9452 24.0467 18.3903 24.6998 19.135L25.1564 19.6557V20.4045V21.1533H20.6642C16.2762 21.1533 16.1685 21.1569 16.0158 21.3096C15.815 21.5104 15.815 21.89 16.0158 22.0908C16.1685 22.2435 16.2762 22.2471 20.6642 22.2471H25.1564V23.6959C25.1564 25.13 25.1584 25.1468 25.3482 25.3365C25.5331 25.5214 25.5782 25.5283 26.6087 25.5283C27.8713 25.5283 28.1936 25.6075 28.5535 26.0059C29.2011 26.7227 29.0201 27.7703 28.1781 28.1779C27.8835 28.3204 27.6976 28.3408 26.6907 28.3408C25.5731 28.3408 25.5344 28.3464 25.3482 28.5326C25.1606 28.7202 25.1564 28.7512 25.1564 29.977V31.2297L24.5332 31.5431C24.1903 31.7154 23.8739 31.8564 23.83 31.8564C23.7861 31.8564 23.7498 31.707 23.7493 31.5244C23.7472 30.8065 23.4046 29.962 22.8879 29.4014C22.7206 29.2199 21.5612 28.2829 20.3115 27.3193L18.0394 25.5674L19.0654 25.5283C19.9645 25.4941 20.1051 25.4705 20.2021 25.3376C20.3671 25.1114 20.3403 24.7181 20.1479 24.5443C20.0017 24.4122 19.8549 24.3956 18.8393 24.396C17.9411 24.3963 17.6088 24.4266 17.2917 24.5368L16.8878 24.6773L15.8854 23.9066C14.5036 22.8442 14.4229 22.7925 13.8923 22.6273C13.4514 22.49 13.0551 22.4814 7.15902 22.4814C0.346753 22.4814 0.627378 22.4633 0.515268 22.91C0.475737 23.0676 0.598628 23.4678 0.724878 23.5925C0.734487 23.602 3.64535 23.6284 7.19347 23.6511L13.6446 23.6924L13.9513 23.8967C14.4569 24.2334 21.5774 29.7417 21.9041 30.0488C22.3582 30.4757 22.5768 30.9997 22.5768 31.6611C22.5768 32.5861 22.0739 33.3591 21.2297 33.7317C20.5867 34.0154 19.664 33.9358 19.1018 33.5482C18.9728 33.4593 17.7072 32.4911 16.2893 31.3968C14.8713 30.3025 13.6173 29.3527 13.5026 29.2863C13.0972 29.0515 12.5672 29.459 12.6821 29.9171C12.7184 30.0614 13.5093 30.715 15.5907 32.3202C17.163 33.5329 18.6138 34.6075 18.8146 34.7083C19.3912 34.9976 19.8636 35.0853 20.5992 35.0393C21.531 34.9812 22.2222 34.6382 22.9059 33.8945L23.3986 33.3585L27.4611 31.3869C31.4928 29.4303 31.5282 29.415 32.1207 29.3763C32.6406 29.3424 32.7727 29.3625 33.1416 29.5313C34.3287 30.0748 34.8317 31.433 34.2706 32.5799C34.151 32.8243 33.9175 33.1395 33.7516 33.2802C33.3738 33.6009 25.5012 37.4763 24.0236 38.069C22.2853 38.7662 21.6498 38.9136 20.3518 38.9204C18.2247 38.9314 17.1313 38.4945 10.405 34.9461L7.21402 33.2627H4.0455C1.14136 33.2627 0.863393 33.2741 0.715268 33.3994C0.451284 33.6228 0.42769 33.9091 0.651675 34.1696L0.845893 34.3955L3.95816 34.4346L7.0705 34.4736L9.96113 36.0073C13.3471 37.8037 14.7057 38.4892 15.9377 39.0226C19.0493 40.37 20.9384 40.4557 23.8283 39.3806C24.9866 38.9497 26.6166 38.1891 30.5673 36.2359C33.9023 34.5871 34.2571 34.393 34.6432 34.0069C34.8984 33.7517 35.1677 33.3731 35.3222 33.0522C35.5444 32.5909 35.5826 32.4206 35.6106 31.7664C35.6594 30.6216 35.3717 29.8868 34.5825 29.1404C33.9051 28.4997 33.1326 28.1873 32.2214 28.1855C31.5171 28.1841 31.135 28.3272 28.7824 29.4735C27.6017 30.0488 26.5664 30.5414 26.482 30.5682C26.3393 30.6135 26.3283 30.5783 26.3283 30.0731V29.5292L27.2463 29.4996C28.0355 29.4741 28.2262 29.4411 28.606 29.2646C29.1267 29.0228 29.6069 28.5546 29.8586 28.0434C30.0093 27.7375 30.0391 27.5538 30.0381 26.9346C30.0371 26.2822 30.0116 26.144 29.8276 25.7933C29.5628 25.2886 28.9371 24.7221 28.4567 24.5521C28.2394 24.4753 27.7226 24.4032 27.2072 24.3778L26.3283 24.3346V22.5796V20.8246L26.6994 21.1483C27.5054 21.8516 30.7444 24.5598 30.9328 24.6879C31.0429 24.7629 31.209 24.8244 31.3019 24.8246C31.4067 24.825 32.1183 24.2864 33.1769 23.4055C37.628 19.7017 38.7192 18.4899 39.2137 16.7015C39.8516 14.3945 39.3606 12.1582 37.9021 10.7282C36.2975 9.15465 34.285 8.87934 31.8508 9.90035L31.2404 10.1564L30.718 9.91699C30.4306 9.78535 29.9332 9.60559 29.6127 9.51746C29.0375 9.35941 27.839 9.25746 27.383 9.32777ZM27.1007 10.5583C26.1002 10.8488 25.1462 11.6448 24.7024 12.5596C24.2988 13.3913 24.194 13.9458 24.2376 15.0205C24.2813 16.0984 24.513 16.9297 24.9582 17.6061C25.6144 18.6032 26.9737 19.913 29.7543 22.2275C31.2604 23.4811 31.2814 23.4951 31.4406 23.3533C31.5293 23.2743 32.1467 22.7582 32.8127 22.2064C35.0313 20.3684 36.4846 19.0175 37.1936 18.1339C38.7468 16.1985 38.7166 13.1771 37.1279 11.571C35.8473 10.2763 34.041 10.0999 32.0676 11.0768C31.7222 11.2478 31.361 11.3877 31.2649 11.3877C31.1687 11.3877 30.8521 11.2679 30.5614 11.1214C29.6807 10.678 29.1036 10.5196 28.2424 10.485C27.732 10.4645 27.3362 10.49 27.1007 10.5583ZM29.95 12.3993C29.5963 12.5492 29.5314 12.7643 29.5314 13.7879V14.7471H28.5294C27.1364 14.7471 27.1877 14.6817 27.1877 16.4549C27.1877 17.78 27.1907 17.804 27.3795 17.9928C27.5627 18.1761 27.6149 18.1846 28.5514 18.1846H29.5314V19.1646C29.5314 20.1011 29.54 20.1533 29.7232 20.3365C29.9121 20.5254 29.9353 20.5283 31.2721 20.5283C33.0347 20.5283 32.9689 20.5807 32.9689 19.1757V18.1846H33.9411C34.8562 18.1846 34.9262 18.1735 35.1325 17.9961L35.3517 17.8075V16.4266C35.3517 14.6662 35.418 14.7471 33.9759 14.7471H32.9689V13.7401C32.9689 12.3124 33.0333 12.3693 31.3939 12.3463C30.6918 12.3364 30.0421 12.3603 29.95 12.3993ZM30.7033 14.4788C30.7033 15.0187 30.6689 15.5248 30.6268 15.6034C30.5044 15.8322 30.1142 15.9189 29.2073 15.9189H28.3596V16.4658V17.0127H29.3396C30.2761 17.0127 30.3283 17.0212 30.5115 17.2045C30.6948 17.3877 30.7033 17.4399 30.7033 18.3764V19.3564H31.2502H31.7971V18.5087C31.7971 17.6018 31.8838 17.2116 32.1126 17.0892C32.1912 17.0471 32.6973 17.0127 33.2372 17.0127H34.2189V16.472V15.9314L33.2053 15.9056C31.8307 15.8707 31.8459 15.886 31.8088 14.5106L31.7814 13.4971H31.2424H30.7033V14.4788ZM17.4444 14.0011C16.4446 14.3135 15.8296 15.0041 15.625 16.0442C15.379 17.295 16.238 18.5893 17.5361 18.9239C17.8303 18.9997 18.3514 19.0439 18.9514 19.0439C19.7938 19.0439 19.9242 19.0257 20.1068 18.882C20.3648 18.6791 20.3891 18.261 20.1564 18.0283C20.0154 17.8873 19.896 17.8721 18.9311 17.8721C18.0014 17.8721 17.8174 17.8505 17.5197 17.7064C16.488 17.2069 16.479 15.7368 17.5045 15.2136C17.7606 15.083 17.9656 15.0596 18.8537 15.0596C19.795 15.0596 19.9218 15.0432 20.1068 14.8976C20.2528 14.7829 20.3124 14.6635 20.3115 14.4875C20.309 13.967 20.1061 13.8864 18.8139 13.8929C18.1871 13.8961 17.6428 13.939 17.4444 14.0011Z" fill="#0068FF"/>
</g>
<defs>
<clipPath id="clip0_58_42">
<rect width="40" height="40" fill="white" transform="translate(0 0.137695)"/>
</clipPath>
</defs>
</svg>
