<svg width="40" height="41" viewBox="0 0 40 41" fill="none" xmlns="http://www.w3.org/2000/svg">
<g clip-path="url(#clip0_58_30)">
<path fill-rule="evenodd" clip-rule="evenodd" d="M18.5157 0.8799C17.3051 1.12396 16.1267 1.69506 15.1334 2.51904C13.593 3.79701 12.507 6.01662 12.4977 7.90615L12.4955 8.38006L12.0162 8.65349C11.1415 9.15256 10.6251 10.0491 10.6251 11.0683C10.6251 11.7261 10.9366 12.9971 11.214 13.4703C11.4131 13.8101 11.8803 14.213 12.2657 14.3772C12.3731 14.423 12.7771 14.4811 13.1634 14.5062L13.8658 14.5519L14.3048 17.2863C14.5463 18.7902 14.7219 20.0383 14.6952 20.0597C14.1115 20.5289 13.3135 20.9002 9.68756 22.3899C5.58436 24.0757 5.62834 24.0559 4.88287 24.5508C3.25662 25.6304 2.04311 27.3957 1.64201 29.2651C1.50131 29.9205 0.561234 39.3971 0.630062 39.4657C0.648812 39.4844 0.943968 39.5114 1.28592 39.5258L1.90772 39.5519L2.35772 34.7863C2.60522 32.1652 2.86506 29.7746 2.93514 29.4738C3.22616 28.2247 4.09983 26.8202 5.07358 26.0358C5.84662 25.4132 6.30186 25.1962 10.1563 23.6121C12.1114 22.8086 13.8868 22.0628 14.1016 21.9547C15.1291 21.4379 16.2937 20.5322 16.9597 19.7319L17.3487 19.2645L16.8315 18.8729L16.3142 18.4814L16.1022 18.6844L15.8903 18.8875L15.7621 18.089C15.6915 17.6498 15.6466 17.2778 15.6622 17.2622C15.6779 17.2465 15.878 17.3829 16.1071 17.5654C17.2393 18.467 19.2622 19.0256 20.6446 18.8183C22.0191 18.6121 23.1041 18.1937 23.893 17.5654C24.1221 17.3829 24.3222 17.2465 24.3379 17.2622C24.3535 17.2778 24.3085 17.6501 24.238 18.0895L24.1097 18.8884L23.8571 18.6437L23.6045 18.3988L23.0949 18.773L22.5853 19.1472L22.7534 19.3833C23.0526 19.8035 24.0881 20.7994 24.6094 21.1683C25.4783 21.7832 26.0258 22.039 29.7657 23.5779C31.7637 24.4 33.6322 25.1953 33.9179 25.3451C34.5965 25.7012 35.4329 26.411 35.9001 27.0276C36.3697 27.6472 36.8999 28.7601 37.0655 29.4738C37.1353 29.7746 37.3949 32.1652 37.6424 34.7863L38.0924 39.5519L38.7142 39.5258C39.0562 39.5114 39.3511 39.4847 39.3694 39.4663C39.4035 39.4323 38.6505 31.2419 38.5082 30.0988C38.2242 27.817 37.023 25.8243 35.1831 24.5827C34.4458 24.0851 34.3767 24.054 30.3516 22.4037C26.6111 20.8701 26.0835 20.6237 25.264 20.0276C25.2589 20.0238 25.4526 18.7902 25.6944 17.2863L26.1343 14.5519L26.8367 14.5108C28.2551 14.4279 28.8276 13.874 29.2251 12.2C29.5469 10.8451 29.323 9.83053 28.5322 9.06029C28.3226 8.85607 28.0046 8.62287 27.8255 8.54217L27.5001 8.39537V7.91381C27.5001 6.03092 26.4112 3.80021 24.8667 2.51912C23.8604 1.68443 22.6615 1.11209 21.419 0.873103C20.7165 0.738025 19.2019 0.74154 18.5157 0.8799ZM19.2236 2.09459C16.7801 2.42623 14.7866 4.09631 14.0734 6.40928C13.8073 7.27224 13.7333 8.13638 13.8291 9.26271C13.9934 11.1949 14.4174 12.7361 15.2518 14.4347C15.6758 15.298 15.8047 15.4841 16.3619 16.0388C17.1298 16.8033 17.845 17.1855 18.9235 17.4081C19.8314 17.5954 20.1687 17.5954 21.0766 17.4081C22.8573 17.0406 24.0001 16.0632 24.8997 14.138C26.1112 11.5455 26.5328 8.38521 25.93 6.41615C25.4459 4.8349 24.2853 3.47326 22.7763 2.71631C21.7118 2.18224 20.3429 1.94271 19.2236 2.09459ZM27.3202 10.6748C27.2469 11.1396 27.0803 11.899 26.9501 12.3626C26.82 12.8262 26.7303 13.2223 26.7509 13.2429C26.8382 13.3301 27.4594 13.0508 27.5995 12.8615C27.8024 12.5871 28.1321 11.2115 28.0714 10.8926C28.01 10.5701 27.7894 10.1335 27.6024 9.96435C27.4576 9.83349 27.4501 9.85248 27.3202 10.6748ZM12.3263 10.0402C12.1559 10.2345 11.9833 10.6045 11.9287 10.8926C11.8681 11.2116 12.1979 12.5872 12.4006 12.8615C12.5407 13.0508 13.1619 13.3301 13.2492 13.2429C13.2698 13.2223 13.1815 12.8312 13.0532 12.3738C12.9247 11.9165 12.7596 11.1735 12.6862 10.7229C12.6127 10.2722 12.5287 9.90349 12.4994 9.90349C12.4701 9.90349 12.3922 9.96498 12.3263 10.0402ZM18.5938 20.3208C16.8611 20.8367 15.5504 22.2059 15.1101 23.9601C14.9374 24.6479 14.9916 25.9997 15.22 26.7015C15.6976 28.1695 16.9984 29.4572 18.4766 29.9255C18.9202 30.0661 19.208 30.0988 20.0001 30.0988C20.7922 30.0988 21.0799 30.0661 21.5235 29.9255C23.008 29.4552 24.3005 28.1757 24.7801 26.7015C25.0332 25.9239 25.0651 24.6375 24.8508 23.8562C24.6432 23.0993 24.3963 22.6097 23.9394 22.0487C23.4454 21.4422 23.1733 21.2026 22.5494 20.8247C21.4176 20.1392 19.8669 19.9416 18.5938 20.3208ZM19.3751 21.4766C17.4435 21.7933 16.0285 23.7394 16.3295 25.6652C16.6454 27.6865 18.5046 29.0861 20.5018 28.8059C21.7312 28.6335 22.8068 27.8494 23.3295 26.7445C24.4 24.4816 23.0176 21.8609 20.5469 21.4695C19.9766 21.3791 19.969 21.3792 19.3751 21.4766ZM18.9454 22.8583C18.3622 23.1442 17.9606 23.5572 17.6901 24.1497C17.5042 24.5567 17.4851 24.6769 17.5164 25.2435C17.5712 26.2379 18.0318 26.9572 18.9063 27.4145C19.2037 27.57 19.3724 27.5983 20.0001 27.5983C20.6277 27.5983 20.7965 27.57 21.0938 27.4145C21.5729 27.164 22.0036 26.7388 22.2526 26.2707C22.4354 25.9269 22.4603 25.7912 22.4604 25.1379C22.4606 24.2969 22.3267 23.9387 21.8082 23.3929C21.3415 22.9015 20.8508 22.6932 20.0782 22.6584C19.4694 22.631 19.3751 22.6476 18.9454 22.8583ZM19.6965 23.9655C19.3371 24.0514 18.912 24.4935 18.8259 24.8711C18.6246 25.7537 19.4407 26.5412 20.3153 26.3082C20.6535 26.2181 21.0709 25.8026 21.1698 25.4576C21.4201 24.5852 20.596 23.7506 19.6965 23.9655ZM11.2501 25.7504C11.2501 26.379 11.2521 26.3854 11.4649 26.4325C11.9665 26.5435 12.184 26.6421 12.4501 26.879C12.8329 27.2197 13.2451 27.939 13.4896 28.6926C13.6801 29.2798 13.6947 29.4366 13.7312 31.2902L13.7701 33.2629H14.3851H15.0001V31.3056C15.0001 29.1674 14.9399 28.7068 14.5309 27.7151C13.9157 26.223 12.8712 25.2833 11.6928 25.1617L11.2501 25.116V25.7504ZM27.8516 25.2474C26.7946 25.5826 26.016 26.389 25.4692 27.7151C25.0602 28.7068 25.0001 29.1674 25.0001 31.3056V33.2629H25.615H26.23L26.2722 31.2902C26.319 29.1091 26.3612 28.8576 26.8444 27.8793C27.2896 26.9779 27.7148 26.6141 28.5352 26.4325C28.7476 26.3855 28.7501 26.3779 28.7501 25.7614V25.1379L28.4571 25.1431C28.296 25.146 28.0235 25.1929 27.8516 25.2474ZM6.75787 31.9911C6.50006 32.0579 6.27905 32.1208 6.2667 32.1308C6.2367 32.1549 8.09811 39.5901 8.14623 39.6383C8.22631 39.7183 9.33616 39.3837 9.35561 39.2737C9.36662 39.2119 8.96006 37.5265 8.45225 35.5285C7.41405 31.4437 7.57459 31.779 6.75787 31.9911ZM32.4287 32.1496C32.1078 33.3642 30.624 39.3806 30.6417 39.395C30.7423 39.4759 31.8218 39.674 31.8699 39.6204C31.9778 39.5002 33.7591 32.2247 33.6947 32.1675C33.6425 32.1211 32.6651 31.8566 32.5456 31.8566C32.5239 31.8566 32.4712 31.9885 32.4287 32.1496Z" fill="#CC5CBE"/>
</g>
<defs>
<clipPath id="clip0_58_30">
<rect width="40" height="40" fill="white" transform="translate(0 0.137695)"/>
</clipPath>
</defs>
</svg>
