<svg width="20" height="27" viewBox="0 0 20 27" fill="none" xmlns="http://www.w3.org/2000/svg">
<path fill-rule="evenodd" clip-rule="evenodd" d="M9.22963 5.0629C8.69347 5.20739 8.26842 5.45369 7.86657 5.85288C7.56392 6.15348 7.4731 6.27692 7.31023 6.60897C7.20321 6.82724 7.08816 7.1374 7.05458 7.29823C6.92997 7.89542 6.99906 8.65164 7.23111 9.23137C7.46429 9.81374 7.66718 10.0522 9.46064 11.8515L11.1677 13.5642L11.4701 13.2624L11.7724 12.9606L10.0582 11.2364C8.84523 10.0164 8.30009 9.43895 8.1939 9.26158C7.99092 8.92263 7.87095 8.54679 7.84284 8.16169C7.76589 7.10825 8.41467 6.18543 9.42045 5.91775C9.68137 5.84828 10.2723 5.84009 10.5417 5.90213C11.0926 6.02908 11.6975 6.50341 11.9326 6.9927C12.2794 7.71484 12.2322 8.55494 11.805 9.25974C11.7221 9.39659 11.3861 9.78324 11.0585 10.119L10.4628 10.7294L10.7441 11.0085C10.8988 11.162 11.0455 11.2876 11.0701 11.2876C11.1595 11.2876 12.2977 10.0782 12.5 9.76833C12.8769 9.19094 13.0859 8.41784 13.0357 7.78715C13.0005 7.34473 12.9119 7.02641 12.7076 6.60897C12.5666 6.32061 12.4627 6.18259 12.1546 5.87439C11.5245 5.24415 10.8719 4.97931 9.95803 4.98307C9.66591 4.98424 9.42262 5.01093 9.22963 5.0629ZM9.71474 6.48658C9.22796 6.58236 8.82777 6.88935 8.62174 7.32505C8.39943 7.79504 8.41873 8.26867 8.6819 8.80207C8.80028 9.04197 8.93153 9.19938 9.41297 9.67877L9.9998 10.263L10.5866 9.67877C11.0681 9.19938 11.1993 9.04197 11.3177 8.80207C11.5809 8.26867 11.6002 7.79504 11.3779 7.32505C11.1651 6.87511 10.7741 6.58295 10.2521 6.48399C10.0023 6.43662 9.96789 6.43678 9.71474 6.48658ZM3.43149 11.0354C2.81956 11.1473 2.3156 11.4107 1.8708 11.8509C1.50458 12.2134 1.28898 12.5546 1.10998 13.055C1.01269 13.327 1.00238 13.4165 1.00029 14.0028C0.998116 14.6081 1.00564 14.6721 1.11512 14.9845C1.46088 15.9711 2.18456 16.6561 3.17225 16.9319C3.63689 17.0617 4.33133 17.0616 4.79903 16.9318C5.22357 16.814 5.6436 16.6067 5.98957 16.3444C6.13891 16.2312 7.00349 15.3949 7.91085 14.4859L9.56064 12.8334L9.25883 12.5316L8.95706 12.2298L7.14957 14.0269C5.67251 15.4955 5.29625 15.8478 5.09144 15.9542C4.2094 16.4125 3.17171 16.2674 2.48303 15.5893C2.18176 15.2927 2.00072 14.977 1.89516 14.5644C1.75513 14.0168 1.8015 13.5661 2.05172 13.0421C2.57464 11.9472 3.94606 11.5146 5.08141 12.0865C5.28147 12.1872 5.50019 12.3739 6.02207 12.8895L6.70209 13.5611L7.00328 13.26L7.30446 12.9587L6.74103 12.3914C5.93447 11.5793 5.55592 11.3296 4.81265 11.1196C4.46818 11.0223 3.74459 10.9782 3.43149 11.0354ZM15.493 11.0403C15.0132 11.1352 14.5173 11.3365 14.1354 11.5914C14.032 11.6604 13.1626 12.4987 12.2035 13.4543L10.4596 15.1917L10.7612 15.4954L11.0629 15.7991L12.8602 14.0072C14.4025 12.4696 14.6945 12.1969 14.9182 12.0853C16.0586 11.5161 17.4252 11.9476 17.9479 13.0421C18.1981 13.5661 18.2445 14.0168 18.1045 14.5644C17.7476 15.9597 16.1969 16.6348 14.9116 15.9545C14.731 15.8589 14.4606 15.6274 13.9766 15.154L13.2958 14.4881L12.9955 14.7884L12.6952 15.0887L13.2168 15.6137C13.7967 16.1972 14.1166 16.4564 14.4901 16.6451C15.0604 16.9331 15.7563 17.0826 16.28 17.0295C17.5205 16.9038 18.4756 16.1537 18.8841 14.9845C18.9922 14.6753 19.0008 14.6035 18.9999 14.0237C18.9991 13.4557 18.9885 13.3659 18.8867 13.0629C18.724 12.5791 18.5056 12.2315 18.1225 11.8469C17.7551 11.4781 17.3221 11.2268 16.8297 11.097C16.5227 11.0159 15.7763 10.9843 15.493 11.0403ZM3.51859 12.5205C3.28742 12.5945 2.9524 12.8372 2.77712 13.0578C2.50124 13.4049 2.38654 13.9428 2.49661 14.3726C2.75502 15.3812 3.80837 15.8614 4.75061 15.4C4.91211 15.3209 5.15377 15.1109 5.61666 14.6473L6.25867 14.0042L5.60316 13.3597C4.80195 12.5719 4.65758 12.487 4.09122 12.4698C3.84188 12.4622 3.64667 12.4795 3.51859 12.5205ZM15.5348 12.5133C15.1921 12.6268 15.03 12.7507 14.4014 13.3794L13.7573 14.0237L14.4163 14.6739C14.8785 15.13 15.1364 15.3523 15.2801 15.4186C15.9301 15.7185 16.6695 15.5782 17.1376 15.0661C17.6974 14.4535 17.6783 13.5057 17.0942 12.9185C16.8198 12.6427 16.4503 12.486 16.0379 12.4706C15.8367 12.463 15.6349 12.4801 15.5348 12.5133ZM9.63337 13.6382C9.44434 13.8282 9.28966 14.0025 9.28966 14.0255C9.28966 14.0485 9.44944 14.2263 9.64473 14.4206L9.9998 14.7738L10.3549 14.4206C10.5502 14.2263 10.7099 14.0477 10.7099 14.0237C10.7099 13.9811 10.0395 13.2927 9.99801 13.2927C9.98648 13.2927 9.82239 13.4482 9.63337 13.6382ZM8.50649 14.7644L8.20426 15.0666L9.99391 16.8636C11.9303 18.8079 11.9805 18.8689 12.1309 19.4566C12.2354 19.8656 12.2355 20.1287 12.1312 20.5368C12.0218 20.9644 11.8702 21.2354 11.5663 21.5464C11.1451 21.9775 10.6185 22.1912 9.98176 22.1893C9.178 22.187 8.47675 21.7799 8.07894 21.0847C7.92651 20.8182 7.78582 20.2963 7.78582 19.9973C7.78582 19.695 7.9268 19.1764 8.08508 18.8965C8.16775 18.7503 8.46948 18.4057 8.87861 17.9904L9.53871 17.3202L9.23527 17.0187L8.93179 16.7173L8.32365 17.3338C7.66585 18.0007 7.51722 18.1933 7.30505 18.6533C6.93544 19.4548 6.89709 20.3927 7.20103 21.2006C7.48768 21.9626 8.18663 22.6125 9.01725 22.8893C9.32278 22.9911 9.40938 23.001 9.9998 23.001C10.5902 23.001 10.6768 22.9911 10.9824 22.8893C12.2875 22.4544 13.0906 21.2449 12.9943 19.8595C12.9476 19.1872 12.708 18.5317 12.3271 18.034C12.2216 17.8961 11.3868 17.0361 10.472 16.1228L8.80872 14.4622L8.50649 14.7644ZM9.30365 18.483C8.51915 19.278 8.4422 19.4133 8.4422 19.9973C8.4422 20.6245 8.7565 21.1271 9.32337 21.4062C9.57839 21.5317 9.63391 21.5429 9.9998 21.5429C10.3657 21.5429 10.4212 21.5317 10.6762 21.4062C11.2431 21.1271 11.5574 20.6245 11.5574 19.9973C11.5574 19.4133 11.4805 19.278 10.696 18.483C10.3276 18.1097 10.0143 17.8042 9.9998 17.8042C9.98535 17.8042 9.67205 18.1097 9.30365 18.483Z" fill="url(#paint0_linear_37_1147)"/>
<defs>
<linearGradient id="paint0_linear_37_1147" x1="-54.3046" y1="80.5153" x2="78.5244" y2="-71.8517" gradientUnits="userSpaceOnUse">
<stop stop-color="#FF7F00"/>
<stop offset="0.338384" stop-color="#CC5CBE"/>
<stop offset="0.666667" stop-color="#0068FF"/>
<stop offset="0.994382" stop-color="#00C8E1"/>
<stop offset="1" stop-color="#00C8E1"/>
</linearGradient>
</defs>
</svg>
