<svg width="148" height="99" viewBox="0 0 148 99" fill="none" xmlns="http://www.w3.org/2000/svg">
<g clip-path="url(#clip0_37_938)">
<mask id="mask0_37_938" style="mask-type:luminance" maskUnits="userSpaceOnUse" x="0" y="0" width="148" height="99">
<path d="M0 -7.62939e-05H148V99H0V-7.62939e-05Z" fill="white"/>
</mask>
<g mask="url(#mask0_37_938)">
<mask id="mask1_37_938" style="mask-type:luminance" maskUnits="userSpaceOnUse" x="49" y="2" width="58" height="65">
<path d="M49.2476 2.49444H106.893V66.7808H49.2476V2.49444Z" fill="white"/>
</mask>
<g mask="url(#mask1_37_938)">
<g opacity="0.300003">
<path d="M90.0092 11.3276C88.8204 6.8391 84.1066 5.0796 80.6133 7.23054C79.8808 7.68163 79.5068 8.2337 79.5124 9.21965C79.5475 15.4021 79.5192 21.5848 79.5133 27.7675C79.5113 29.9374 79.5359 32.1077 79.5019 34.2769C79.4897 35.0549 79.7489 35.3631 80.4721 35.3012C80.9967 35.2563 81.5276 35.2698 82.0545 35.2908C82.5685 35.3114 82.8148 35.0914 82.8563 34.5269C82.8996 33.936 82.9717 33.3403 83.103 32.7656C83.3536 31.6693 84.077 31.1691 84.9998 31.3909C85.8291 31.5902 86.1427 32.4128 86.0158 33.5171C85.8994 34.5293 85.8528 35.5855 85.9943 36.5869C86.1322 37.5631 86.5043 38.5131 86.8538 39.4399C87.1589 40.2492 86.9304 40.8408 86.3527 41.3192C85.7714 41.8004 84.9776 41.7008 84.4601 41.1265C84.3077 40.9573 84.1133 40.763 84.0772 40.5529C83.6904 38.3043 82.1978 38.315 80.5479 38.4499C79.8243 38.5091 79.5154 38.6545 79.5187 39.5081C79.5455 46.404 79.5203 53.3001 79.5655 60.1958C79.5685 60.659 79.9096 61.2796 80.2733 61.5524C81.8116 62.7067 83.5803 63.0425 85.4273 62.8501C87.9613 62.5862 89.72 61.1006 90.6395 58.6237C91.5828 56.0826 91.0494 53.7347 89.423 51.6465C88.9936 51.0951 88.6127 51.0295 88.0147 51.4271C87.2685 51.9233 86.4401 52.2852 85.6277 52.6559C85.3314 52.7911 84.9799 52.8273 84.6519 52.8358C83.8848 52.8554 83.2767 52.3507 83.1708 51.5678C83.0688 50.8143 83.3645 50.2177 84.023 49.9051C84.6788 49.5938 85.4 49.4203 86.022 49.0505C87.7376 48.0306 88.7674 46.4535 89.2299 44.4001C89.477 43.3032 90.0883 42.9469 91.008 43.1421C91.7991 43.31 92.2669 44.0097 92.0582 45.051C91.8692 45.9933 91.5178 46.9123 91.137 47.7916C90.8838 48.3762 90.9115 48.7095 91.2983 49.2639C92.1502 50.4846 92.9576 51.7785 93.5536 53.1562C94.2362 54.7341 94.2215 54.8313 95.7494 54.1488C95.8005 54.126 95.8476 54.0932 95.8979 54.068C99.5576 52.2408 100.784 47.6617 98.5927 43.9939C98.2553 43.4293 97.8964 42.8794 97.5381 42.3077C97.7095 42.1707 97.7891 42.0866 97.8842 42.0352C98.1064 41.9153 98.3336 41.8055 98.5627 41.7016C100.988 40.6021 102.609 38.8069 103.173 35.9549C104.211 30.7063 99.6198 25.9141 94.7128 27.1777C94.1502 27.3226 93.9357 27.5522 94.19 28.2453C94.5615 29.2579 94.8722 30.3177 95.0418 31.3877C95.2173 32.4952 94.72 33.1776 93.8854 33.3031C93.006 33.4355 92.3059 32.8993 92.1367 31.8137C91.6928 28.9645 90.2076 27.0329 87.7742 25.8571C86.8509 25.411 86.5053 24.5737 86.82 23.7808C87.1708 22.8968 88.0778 22.5238 88.9938 22.9938C89.8139 23.4145 90.5711 23.9735 91.3754 24.4328C91.6405 24.5842 92.0249 24.7731 92.2543 24.6752C94.0827 23.8949 95.9677 23.7672 97.9032 23.906C98.1575 23.9242 98.5861 23.6119 98.6798 23.3489C99.2885 21.6396 99.2662 19.9084 98.5406 18.2407C96.5858 13.7487 91.2968 12.7908 88.0469 16.3224C87.1588 17.2876 86.3568 17.4226 85.6691 16.7225C84.9636 16.0043 85.0249 14.9797 85.9838 14.0947C86.8577 13.2882 87.8387 12.61 88.7995 11.9182C89.155 11.6622 89.5875 11.5286 90.0092 11.3276ZM58.6084 42.249C58.1653 42.9596 57.7645 43.5559 57.408 44.1812C55.1018 48.2271 57.051 53.3391 61.3303 54.5037C61.8858 54.655 62.2277 54.5493 62.3574 53.8741C62.6628 52.284 63.3741 50.8669 64.5184 49.8492C65.8206 48.6914 65.9287 47.2267 65.8166 45.6663C65.7623 44.9104 65.52 44.1605 65.2985 43.4303C64.9866 42.4016 65.2912 41.5167 66.1415 41.169C66.8721 40.8703 67.7536 41.2916 68.0279 42.2846C68.3777 43.5512 68.6416 44.8657 68.7568 46.1782C68.8284 46.9936 69.0377 47.201 69.7532 47.0893C70.3517 46.9958 70.9757 46.9506 71.5734 47.0245C72.3352 47.1187 72.7346 47.6865 72.7483 48.5031C72.7621 49.3285 72.354 49.8505 71.6053 50.0183C71.1178 50.1276 70.6144 50.153 70.1212 50.2361C67.4672 50.6829 65.6393 52.4231 65.111 54.9966C64.6116 57.4287 65.7257 60.2934 67.7757 61.7483C70.0231 63.3434 72.3842 63.157 74.7817 62.1898C76.0098 61.6944 76.6106 60.9309 76.6012 59.345C76.5344 48.0499 76.576 36.7539 76.581 25.4582C76.5817 24.5962 76.5584 23.7342 76.5606 22.8722C76.5617 22.3936 76.4115 22.2041 75.9159 22.215C74.8164 22.2391 73.6845 22.3395 72.6207 22.1133C70.2158 21.6021 68.3271 20.2112 67.2751 17.7636C67.1035 17.3647 67.086 16.7009 67.2887 16.3552C67.5334 15.9378 68.0611 15.5527 68.516 15.471C69.2073 15.3468 69.6628 15.9013 70.004 16.5372C71.1383 18.6522 73.5687 19.6715 75.7241 19.0433C76.4025 18.8456 76.6023 18.4807 76.5958 17.7847C76.5696 14.961 76.531 12.136 76.5919 9.31378C76.6147 8.25935 76.2078 7.65988 75.414 7.18635C71.8613 5.06706 67.3413 6.94109 66.1479 11.0841C65.9137 11.8971 65.8581 12.7784 65.7934 13.6346C65.7494 14.2182 65.5536 14.3948 65.0112 14.3378C64.2674 14.2597 63.5116 14.2164 62.7667 14.2629C58.8664 14.5064 56.0867 18.9553 57.2611 22.9521C57.5045 23.7805 57.8582 23.9974 58.629 23.9194C62.4635 23.5318 65.5138 25.006 67.7573 28.3927C67.9294 28.6526 68.3916 28.7871 68.7285 28.8085C69.6098 28.8645 70.5025 28.7546 71.3789 28.8434C72.3298 28.9399 72.7905 29.5967 72.7182 30.5204C72.6506 31.3827 72.0007 31.9948 71.0841 31.9146C68.3117 31.6719 66.1037 32.7278 64.3918 35.063C63.8304 35.8288 62.9782 35.9371 62.3312 35.4191C61.6126 34.8437 61.4473 33.9539 62.0779 33.162C62.8093 32.2437 63.6211 31.3773 64.4978 30.6206C65.0491 30.1449 65.1221 29.8694 64.6506 29.3019C62.8673 27.1556 60.5854 26.6623 58.1206 27.2205C55.1815 27.8862 53.0415 30.7263 52.7846 33.9647C52.5368 37.0898 54.2178 40.0785 56.9694 41.4149C57.4896 41.6675 58.0016 41.9395 58.6084 42.249ZM85.2325 66.7716C82.5375 66.6747 80.5162 66.2334 78.7164 64.9885C78.2189 64.6443 77.8601 64.7087 77.3658 65.001C73.7779 67.1229 70.1003 67.4962 66.4302 65.3082C64.2492 64.008 62.7096 62.0452 61.9945 59.4343C61.7942 58.7027 61.4399 58.3252 60.694 58.1841C55.9942 57.2954 52.3448 51.9882 52.928 46.9261C53.0258 46.0765 53.2884 45.2475 53.369 44.3976C53.4038 44.0303 53.281 43.4988 53.0405 43.2713C49.9213 40.3205 48.7449 36.6205 49.4414 32.292C49.8964 29.4642 51.3479 27.1868 53.486 25.4563C54.0044 25.0366 54.0786 24.6851 53.8759 24.0384C52.1187 18.4328 55.7349 11.778 61.1659 10.6984C62.2563 10.4817 62.7242 9.94837 63.1394 8.87743C65.3498 3.17513 71.9128 0.793579 76.9647 3.82905C77.7721 4.31427 78.3417 4.3108 79.1463 3.82395C84.2973 0.706818 90.9763 3.29702 93.0794 9.22022C93.3818 10.072 93.8038 10.46 94.6247 10.6124C98.4772 11.3277 102.098 14.8165 102.588 20.0137C102.713 21.336 102.425 22.7217 102.201 24.0543C102.102 24.6464 102.063 25.0001 102.563 25.4155C108.123 30.0351 108.365 38.2348 103.078 43.1936C102.522 43.7153 102.635 44.1933 102.794 44.7674C104.166 49.7156 102.112 54.9109 97.7992 57.2745C97.0448 57.6879 96.2125 57.992 95.3832 58.1785C94.6896 58.3345 94.3302 58.6747 94.1233 59.3741C93.1349 62.7155 91.0524 64.9671 87.987 66.1198C86.9312 66.5167 85.7873 66.6453 85.2325 66.7716Z" fill="url(#paint0_linear_37_938)"/>
</g>
</g>
</g>
<path d="M33.7153 70.5612V76.0795H34.7495V73.9607H35.6137C36.9435 73.9607 37.4753 73.1069 37.4753 72.2689C37.4753 71.3123 36.8548 70.5612 35.6137 70.5612H33.7153ZM34.7495 71.4625H35.5695C36.1531 71.4625 36.4115 71.7629 36.4115 72.2689C36.4115 72.759 36.1531 73.0674 35.5695 73.0674H34.7495V71.4625Z" fill="url(#paint1_linear_37_938)"/>
<path d="M43.6667 70.5612V72.8302H41.458V70.5612H40.4238V76.0795H41.458V73.7315H43.6667V76.0795H44.701V70.5612H43.6667Z" fill="url(#paint2_linear_37_938)"/>
<path d="M50.8852 70.5612L49.7845 73.0832L48.6765 70.5612H47.5093L49.26 74.1583V76.0795H50.2942V74.1583L52.0375 70.5612H50.8852Z" fill="url(#paint3_linear_37_938)"/>
<path d="M54.7349 72.0791C54.7276 74.0794 57.387 73.3599 57.387 74.5537C57.387 74.949 57.0987 75.2257 56.6112 75.2257C56.1312 75.2257 55.8578 74.9331 55.8282 74.4904H54.7202C54.7349 75.534 55.5624 76.1348 56.6335 76.1348C57.8079 76.1348 58.4581 75.3522 58.4581 74.4826C58.4581 72.5376 55.8135 73.1543 55.8135 72.0475C55.8135 71.5969 56.1164 71.3833 56.5226 71.3992C56.9659 71.407 57.2392 71.6917 57.2614 72.0554H58.3989C58.3325 71.0592 57.6085 70.4821 56.5523 70.4821C55.4885 70.4821 54.7349 71.0829 54.7349 72.0791Z" fill="url(#paint4_linear_37_938)"/>
<path d="M61.5688 76.0795H62.603V70.5611H61.5688V76.0795Z" fill="url(#paint5_linear_37_938)"/>
<path d="M65.5884 73.3045C65.5884 74.9649 66.7775 76.1348 68.2328 76.1348C69.6955 76.1348 70.87 74.9649 70.87 73.3045C70.87 71.6522 69.7028 70.4821 68.2328 70.4821C66.7775 70.4821 65.5884 71.6522 65.5884 73.3045ZM66.652 73.3045C66.652 72.182 67.2948 71.4783 68.2328 71.4783C69.1636 71.4783 69.8063 72.182 69.8063 73.3045C69.8063 74.4272 69.1636 75.1467 68.2328 75.1467C67.2948 75.1467 66.652 74.4272 66.652 73.3045Z" fill="url(#paint6_linear_37_938)"/>
<path d="M73.5825 70.5612V71.4545H74.9564V76.0795H75.9907V71.4545H77.3646V70.5612H73.5825Z" fill="url(#paint7_linear_37_938)"/>
<path d="M83.5784 70.5612V72.8302H81.3696V70.5612H80.3354V76.0795H81.3696V73.7315H83.5784V76.0795H84.6125V70.5612H83.5784Z" fill="url(#paint8_linear_37_938)"/>
<path d="M87.8491 70.5532V76.0795H90.8407V75.1783H88.8832V73.7157H90.6193V72.838H88.8832V71.4545H90.8407V70.5532H87.8491Z" fill="url(#paint9_linear_37_938)"/>
<path d="M93.9961 70.5612V76.0795H95.0302V73.9292H95.5177L96.6555 76.0795H97.8521L96.6185 73.8422C97.4457 73.6049 97.7929 72.9251 97.7929 72.253C97.7929 71.328 97.1724 70.5612 95.9316 70.5612H93.9961ZM95.0302 71.4783H95.8946C96.4708 71.4783 96.7293 71.7866 96.7293 72.2768C96.7293 72.7749 96.4708 73.0989 95.8946 73.0989H95.0302V71.4783Z" fill="url(#paint10_linear_37_938)"/>
<path d="M102.485 70.5532L100.631 76.0795H101.717L102.057 75.0281H104.11L104.45 76.0795H105.543L103.689 70.5532H102.485ZM103.084 71.834L103.83 74.1426H102.337L103.084 71.834Z" fill="url(#paint11_linear_37_938)"/>
<path d="M108.455 70.5612V76.0795H109.489V73.9607H110.354C111.683 73.9607 112.215 73.1069 112.215 72.2689C112.215 71.3123 111.594 70.5612 110.354 70.5612H108.455ZM109.489 71.4625H110.309C110.893 71.4625 111.151 71.7629 111.151 72.2689C111.151 72.759 110.893 73.0674 110.309 73.0674H109.489V71.4625Z" fill="url(#paint12_linear_37_938)"/>
<path d="M115.164 76.0795H116.198V70.5611H115.164V76.0795Z" fill="url(#paint13_linear_37_938)"/>
<path d="M119.434 70.5532V76.0795H122.426V75.1783H120.468V73.7157H122.204V72.838H120.468V71.4545H122.426V70.5532H119.434Z" fill="url(#paint14_linear_37_938)"/>
<path d="M25.8435 79.9987L23.0926 87.4285L20.3419 79.9987H17.8862C18.627 80.1505 18.7717 80.7255 18.7717 81.4362L18.7776 89.3651C18.7776 90.0759 18.6329 90.651 17.892 90.8027H19.9698C19.226 90.651 19.0843 90.0761 19.0843 89.3651L19.0784 81.553C20.1174 84.3581 21.2979 87.5488 22.3371 90.357L25.8435 80.8896V89.1912C25.8435 89.9051 25.7018 90.6508 24.9578 90.8022H28.4378C27.6969 90.6508 27.5523 89.9051 27.5523 89.1912V81.6099C27.5523 80.8959 27.6969 80.1504 28.4378 79.9987H25.8435Z" fill="url(#paint15_linear_37_938)"/>
<path d="M33.8221 90.9667C40.0351 90.9667 40.0351 79.8346 33.8221 79.8346C27.6062 79.8346 27.6062 90.9667 33.8221 90.9667ZM33.8221 90.6383C29.979 90.6319 29.979 80.1569 33.8221 80.1632C37.6721 80.1727 37.6713 90.6387 33.8272 90.6383C33.8256 90.6383 33.8237 90.6383 33.8221 90.6383Z" fill="url(#paint16_linear_37_938)"/>
<path d="M39.2476 79.999C39.9914 80.1505 40.133 80.7255 40.133 81.4362V89.3651C40.133 90.0759 39.9914 90.651 39.2476 90.8027H43.1112C45.3662 90.8027 46.9216 89.7032 46.9216 87.5076C46.9216 86.0702 45.8505 85.1289 44.5044 84.7563C45.3604 84.4403 46.2576 83.7359 46.2576 82.6651C46.2576 81.3447 44.9971 79.999 43.1112 79.999H39.2476ZM41.8421 80.3272H43.1112C44.1325 80.3272 44.5485 81.6066 44.5485 82.6333C44.5485 83.5873 44.1264 84.5792 43.1112 84.5792H41.8421V80.3272ZM41.8421 84.9079H43.1112C43.9288 84.9079 45.1447 86.137 45.1447 87.5236C45.1449 88.8692 44.2772 90.474 43.1112 90.474H41.8421V84.9079Z" fill="url(#paint17_linear_37_938)"/>
<path d="M47.6411 79.999C48.382 80.1505 48.5266 80.8961 48.5266 81.6101V89.1915C48.5266 89.9055 48.382 90.651 47.6411 90.8027H51.121C50.3771 90.651 50.2354 89.9055 50.2354 89.1915V81.6101C50.2354 80.8961 50.3771 80.1505 51.121 79.999H47.6411Z" fill="url(#paint18_linear_37_938)"/>
<path d="M51.8813 79.999C52.6253 80.1505 52.7668 80.8961 52.7668 81.6101V89.1915C52.7668 89.9055 52.6253 90.651 51.8813 90.8027H58.7527L59.0859 89.4442V88.0827C58.9413 89.5295 57.985 90.474 56.6951 90.474H54.4756V81.6101C54.4756 80.8961 54.6204 80.1505 55.3611 79.999H51.8813Z" fill="url(#paint19_linear_37_938)"/>
<path d="M59.6675 79.999C60.4082 80.1505 60.5528 80.8961 60.5528 81.6101V89.1915C60.5528 89.9055 60.4082 90.651 59.6675 90.8027H63.1474C62.4035 90.651 62.2618 89.9055 62.2618 89.1915V81.6101C62.2618 80.8961 62.4035 80.1505 63.1474 79.999H59.6675Z" fill="url(#paint20_linear_37_938)"/>
<path d="M64.0673 79.999L63.7339 81.3572V82.7187C63.8787 81.272 64.8348 80.3272 66.1246 80.3272H67.5767V89.1915C67.5767 89.9055 67.435 90.651 66.6913 90.8027H70.1711C69.4273 90.651 69.2856 89.9055 69.2856 89.1915V80.3272H70.7377C72.0277 80.3272 72.9838 81.2717 73.1287 82.7185V81.3572L72.7952 79.999H64.0673Z" fill="url(#paint21_linear_37_938)"/>
<path d="M76.5743 78.4912C76.5743 78.963 76.9316 79.3453 77.3722 79.3453C77.8131 79.3453 78.1725 78.9628 78.1725 78.4912C78.1725 78.0195 77.8131 77.6346 77.3722 77.6346C76.9316 77.6346 76.5743 78.0195 76.5743 78.4912ZM74.079 78.4912C74.079 78.963 74.4365 79.3453 74.8793 79.3453C75.32 79.3453 75.6773 78.9628 75.6773 78.4912C75.6773 78.0195 75.3198 77.6346 74.8793 77.6346C74.4365 77.6346 74.079 78.0195 74.079 78.4912ZM72.8926 89.3652C72.6478 90.0853 72.2608 90.654 71.52 90.8025H73.6481C72.9488 90.6633 73.0195 90.0727 73.2408 89.3715C73.3645 88.9989 73.5418 88.4617 73.6658 88.0952H77.0924C77.2162 88.468 77.3935 89.0018 77.5147 89.3715C77.7742 90.1486 77.848 90.654 77.1071 90.8025H80.7317C79.9909 90.654 79.6044 90.0885 79.3624 89.3715C78.2997 86.2473 77.1869 82.9589 76.1245 79.8346L72.8926 89.3652ZM75.3835 82.9842C75.9237 84.5762 76.4549 86.1716 76.9861 87.7669H73.7748C74.3091 86.1684 74.8316 84.6143 75.3835 82.9842Z" fill="url(#paint22_linear_37_938)"/>
<path d="M79.4516 79.999L79.1182 81.3572V82.7187C79.2628 81.272 80.2191 80.3272 81.5087 80.3272H82.961V89.1915C82.961 89.9055 82.8193 90.651 82.0754 90.8027H85.5553C84.8114 90.651 84.6697 89.9055 84.6697 89.1915V80.3272H86.122C87.4118 80.3272 88.3682 81.2717 88.5128 82.7185V81.3572L88.1793 79.999H79.4516Z" fill="url(#paint23_linear_37_938)"/>
<path d="M89.379 82.3743C89.4053 85.6755 94.8098 85.9788 94.8011 88.7302C94.7893 92.0502 89.9782 90.3762 89.4173 87.3751L89.3879 89.9497C90.3118 90.6384 91.4125 90.932 92.5343 90.9669C95.1789 90.9669 96.3948 89.5863 96.3948 88.0322C96.3948 84.6268 90.9286 83.9256 90.9286 81.8185C90.9286 80.1821 92.3897 80.1633 93.2427 80.1633C95.4356 80.1633 96.6104 81.3321 97.0737 82.7285C97.9798 85.464 98.954 88.2725 99.8689 90.9669L102.664 82.7314C103.591 85.4578 104.544 88.2723 105.46 90.9669L108.694 81.4362C108.939 80.7159 109.326 80.1473 110.067 79.9987C109.358 79.999 108.647 79.999 107.939 79.999C108.635 80.138 108.567 80.7287 108.346 81.4298C107.637 83.5493 106.92 85.7038 106.2 87.8174C105.498 85.7482 104.754 83.5053 104.069 81.4298C103.809 80.656 103.736 80.1473 104.476 79.999H100.852C101.593 80.1475 101.979 80.7128 102.221 81.4298L102.49 82.2228C101.468 85.2964 102.531 82.1596 100.613 87.8174C100.028 86.0988 99.4557 84.3709 98.8801 82.6462C98.0065 80.0465 95.2675 79.8443 93.2368 79.8316C93.2206 79.8315 93.2044 79.8315 93.1879 79.8315C91.6669 79.8315 89.3615 80.2806 89.379 82.3743Z" fill="url(#paint24_linear_37_938)"/>
<path d="M118.425 80.002C119.165 80.1505 119.31 80.8992 119.31 81.6099V85.5681H121.019V80.3305H122.288C124.933 80.3305 124.838 86.0611 122.288 86.0611H116.17C115.021 86.0611 114.357 85.783 114.189 84.3614V88.0858C114.357 86.6644 115.022 86.3896 116.17 86.3896H122.096C124.469 86.4527 125.438 97.8693 135.561 92.0346C127.642 95.639 127.011 87.9437 123.728 86.2284C127.146 85.1102 126.76 80.002 122.288 80.002H118.425ZM110.334 80.0022C111.078 80.1508 111.22 80.8994 111.22 81.6101V89.1948C111.22 89.9056 111.078 90.6543 110.334 90.8027H117.206L117.539 89.4444V88.086C117.395 89.5326 116.438 90.474 115.148 90.474H112.929V80.3305H115.148C116.438 80.3305 117.395 81.2718 117.539 82.7187V81.3604L117.206 80.0022H110.334ZM119.31 86.8824V89.1948C119.31 89.9056 119.165 90.6543 118.424 90.8027H121.904C121.16 90.654 121.019 89.9056 121.019 89.1948V86.8824H119.31Z" fill="url(#paint25_linear_37_938)"/>
<path d="M128.048 79.9987C128.789 80.1504 128.934 80.8959 128.934 81.6099V89.1912C128.934 89.9055 128.789 90.651 128.048 90.8027H131.528C130.784 90.651 130.643 89.9055 130.643 89.1915V87.3182L131.531 86.0324C132.461 87.3719 133.388 88.7143 134.317 90.0572C135.103 91.1911 136.944 91.0298 138.255 90.8027C136.98 90.8027 136.404 89.9973 135.604 88.8409L132.597 84.4941L134.713 81.4363C135.197 80.7352 135.849 80.1475 136.593 79.9992H134.438C135.277 80.1698 134.604 81.0416 134.332 81.4363L130.643 86.7781V81.6099C130.643 80.8959 130.784 80.1504 131.528 79.9987H128.048Z" fill="url(#paint26_linear_37_938)"/>
<path d="M78.0879 9.70354C77.5288 9.72634 77.1021 10.1522 77.0256 10.7915C76.8292 12.433 76.6068 14.0722 76.461 15.7189C76.3429 17.0543 75.871 18.1109 74.8853 18.9881C73.178 20.5076 71.5462 22.1241 69.8778 23.694C69.1174 24.4095 68.8021 25.3064 69.0616 26.3424C69.2526 27.1046 69.5666 27.836 69.8662 28.5621C71.1057 31.5667 72.3566 34.5661 73.6121 37.5632C74.1302 38.8 74.4454 40.0791 74.2987 41.4405C74.0977 43.3067 73.3664 44.8263 71.6905 45.6421C71.229 45.8668 70.7234 45.9879 70.2385 46.1582C70.1375 46.1936 70.0386 46.2364 69.8521 46.3099C69.9593 46.3715 69.9877 46.3917 70.0187 46.4052C71.0186 46.8394 72.0173 47.2769 73.0216 47.6989C73.0977 47.7309 73.242 47.6851 73.3076 47.6207C74.5748 46.3761 75.4361 44.8558 75.8359 43.0719C76.1032 41.8791 76.2379 40.653 76.4722 39.4507C76.5703 38.9476 76.4567 38.6225 76.1182 38.2472C75.2648 37.301 75.1749 35.794 75.8178 34.6065C76.3713 33.584 77.5387 33.0225 78.7091 33.3248C80.6936 33.8374 81.4897 36.2012 80.3436 37.923C79.8939 38.5986 79.7415 39.1774 79.8654 39.9735C80.0944 41.4448 80.2362 42.9281 80.8028 44.3172C81.3408 45.6362 82.0963 46.7811 83.0291 47.7376C84.16 47.2569 85.2503 46.7934 86.4311 46.2915C86.0828 46.1837 85.8121 46.0965 85.5397 46.0159C83.3986 45.3816 82.1908 43.8252 81.9596 41.4664C81.8264 40.1068 82.1331 38.8469 82.6336 37.6278C84.044 34.1923 85.474 30.766 86.8865 27.3315C87.4944 25.8535 87.3677 24.5888 86.214 23.5201C84.4909 21.9239 82.7988 20.2891 81.0814 18.6855C80.4747 18.1191 80.0084 17.4797 79.8968 16.6016C79.773 15.6284 79.6518 14.6548 79.5334 13.6808C79.4149 12.7068 79.3159 11.7298 79.1799 10.7585C79.0932 10.1395 78.6261 9.70283 78.1232 9.70283C78.1114 9.70283 78.0997 9.70283 78.0879 9.70354ZM74.115 30.7158C73.508 29.4159 72.9769 28.0742 72.4422 26.7372C72.1432 25.9897 72.3016 25.2823 72.8083 24.697C73.9702 23.3546 75.153 22.0327 76.3267 20.7018C76.5663 20.4303 76.7956 20.148 77.0425 19.8844C77.6229 19.2652 77.9686 18.5231 78.13 17.6493C78.2098 17.9444 78.2751 18.2451 78.3721 18.5335C78.6492 19.3579 79.2384 19.9353 79.7833 20.5483C80.9299 21.8383 82.0639 23.1411 83.2167 24.4245C83.9568 25.2483 84.1135 26.1451 83.6565 27.1904C83.2082 28.2159 82.8109 29.2667 82.3737 30.2978C82.0444 31.0746 81.5844 31.7491 80.7251 31.8449C80.3134 31.8908 79.8521 31.8365 79.4681 31.6767C78.5109 31.2784 77.603 31.305 76.6573 31.7168C76.3668 31.8433 76.0795 31.9052 75.8054 31.9052C75.0982 31.9052 74.4781 31.4935 74.115 30.7158Z" fill="url(#paint27_linear_37_938)"/>
<path d="M87.3719 47.6273C85.8339 48.1309 84.3392 48.8112 82.8665 49.5123C79.9272 50.9118 77.0272 52.4052 74.0113 53.6168C71.5475 54.6067 69.0439 55.4178 66.4171 55.7336C66.2843 55.7496 66.16 55.8461 66.0317 55.9051C66.1452 55.9953 66.2578 56.0866 66.3727 56.1745C66.3898 56.1876 66.4181 56.1829 66.4404 56.1897C68.1305 56.6968 69.8364 56.7128 71.5492 56.3566C73.1667 56.0202 74.6979 55.3875 76.2095 54.7111C79.0512 53.4398 81.8752 52.1234 84.7145 50.8459C85.9902 50.272 87.2826 49.7353 88.6732 49.5623C89.7326 49.4305 90.74 49.5805 91.63 50.2645C91.7192 50.333 91.8372 50.5119 91.8106 50.5669C91.7585 50.6748 91.6224 50.7707 91.5054 50.8C91.3279 50.8445 91.137 50.8303 90.9515 50.8373C90.7276 50.8457 90.5016 50.8434 90.2754 50.8411C89.7752 50.8358 89.2751 50.8305 88.7992 50.9425C87.7741 51.1836 86.7786 51.5798 85.7831 51.9486C85.2181 52.1578 84.6779 52.444 84.1265 52.6955C84.1296 52.7462 84.1327 52.7969 84.1357 52.8477C85.0195 53.1455 85.8947 53.478 86.7891 53.7338C88.5449 54.2361 90.3232 54.606 92.1559 54.5332C93.769 54.4691 95.0047 53.3479 95.1266 51.7082C95.2332 50.2739 94.6439 49.1387 93.4869 48.3992C92.2719 47.6225 90.9943 47.2436 89.6864 47.2437C88.923 47.2437 88.1492 47.3728 87.3719 47.6273Z" fill="url(#paint28_linear_37_938)"/>
<path d="M65.3461 47.3603C64.2727 47.5333 63.2647 47.8938 62.3932 48.6008C61.1337 49.6228 60.6713 51.1863 61.2464 52.5573C61.7998 53.8767 62.8336 54.4706 64.1399 54.528C65.9497 54.6075 67.6999 54.2011 69.4283 53.6812C70.3185 53.4134 71.1983 53.1061 72.0827 52.8167C72.0817 52.7759 72.0806 52.7351 72.0795 52.6943C71.501 52.4434 70.9187 52.2018 70.3447 51.9396C68.6468 51.1641 66.9079 50.6276 65.0315 50.8383C64.9066 50.8523 64.7685 50.8474 64.6524 50.8032C64.5319 50.7574 64.3828 50.6761 64.3372 50.5667C64.3037 50.4867 64.3862 50.2822 64.4706 50.2269C64.774 50.0284 65.0847 49.8158 65.4204 49.7057C66.5758 49.3268 67.7409 49.4605 68.8507 49.8718C70.3418 50.4244 71.8161 51.0402 73.2619 51.7165C73.8729 52.0023 74.3765 52.1173 74.9712 51.7244C75.3749 51.4577 75.8425 51.3018 76.327 51.075C76.1832 50.9831 76.0986 50.9167 76.0052 50.871C74.1993 49.9876 72.4072 49.0691 70.5812 48.2359C69.2846 47.6444 67.9436 47.2641 66.5489 47.2642C66.1524 47.2642 65.7514 47.2949 65.3461 47.3603Z" fill="url(#paint29_linear_37_938)"/>
<path d="M78.0062 34.695C77.4267 34.7509 77.0143 35.0963 76.8176 35.6954C76.6444 36.2229 76.739 36.7221 77.0806 37.1247C77.5847 37.7187 77.7701 38.4039 77.7248 39.1841C77.6952 39.6929 77.6926 40.2046 77.6391 40.7104C77.415 42.8305 76.9773 44.8835 75.8092 46.6671C75.4038 47.2861 74.9255 47.8505 74.4556 48.4729C75.6343 49.0534 76.7903 49.628 77.9535 50.1857C78.0457 50.2299 78.1985 50.1842 78.3038 50.1339C79.237 49.6878 80.1661 49.2317 81.0958 48.7772C81.331 48.6622 81.564 48.542 81.8171 48.4146C81.7483 48.3277 81.7155 48.276 81.6737 48.2348C80.7603 47.3328 80.1167 46.2291 79.6192 45.0263C78.8111 43.0728 78.5461 40.9982 78.5011 38.8848C78.489 38.3177 78.6131 37.7742 79.0344 37.3605C79.144 37.2527 79.232 37.115 79.3132 36.9794C79.6293 36.452 79.6032 35.916 79.3014 35.3988C79.0319 34.9371 78.6338 34.688 78.1488 34.688C78.102 34.688 78.0545 34.6903 78.0062 34.695Z" fill="url(#paint30_linear_37_938)"/>
<path d="M82.0225 53.5824C81.2749 53.9133 80.5369 54.2693 79.7197 54.6534C81.6811 55.681 83.6369 56.3096 85.7008 56.5498C86.9992 56.701 88.2763 56.5526 89.541 56.2447C89.7745 56.188 90.0446 56.1546 90.1881 55.8211C90.0512 55.784 89.9457 55.7467 89.8375 55.7275C88.8994 55.5618 87.9566 55.4227 87.0233 55.2307C85.4211 54.9012 83.8855 54.335 82.3821 53.6634C82.2926 53.6234 82.1786 53.5699 82.0883 53.5699C82.0644 53.57 82.0422 53.5737 82.0225 53.5824Z" fill="url(#paint31_linear_37_938)"/>
<path d="M77.9931 55.4399C77.0823 55.896 76.1762 56.3631 75.1924 56.8666C76.193 58.0598 77.1496 59.2004 78.116 60.3528C79.0709 59.1901 80.0085 58.0485 80.9492 56.903C80.0489 56.4227 79.149 55.9402 78.2455 55.4655C78.1984 55.4407 78.134 55.4232 78.0763 55.4232C78.0454 55.4232 78.0164 55.4282 77.9931 55.4399Z" fill="url(#paint32_linear_37_938)"/>
<path d="M75.1174 26.5458C75.0989 28.3084 76.4225 29.7245 78.1001 29.7369C79.7851 29.7493 81.1164 28.3631 81.1277 26.5842C81.1389 24.8198 79.7818 23.38 78.1006 23.373C78.0966 23.373 78.0928 23.373 78.0889 23.373C76.4637 23.373 75.1358 24.7895 75.1174 26.5458Z" fill="url(#paint33_linear_37_938)"/>
<path d="M78.3465 32.6206L75.4293 33.3552L75.0861 34.4572L75.2577 38.6813L74.7429 44.5583L71.1548 46.899L75.504 48.9901L79.1782 49.7125L83.913 47.3617L81.7785 45.2929L80.9204 41.0689L81.4353 37.212L80.9204 32.6206H78.3465Z" fill="url(#paint34_linear_37_938)"/>
</g>
<defs>
<linearGradient id="paint0_linear_37_938" x1="57.5716" y1="15.353" x2="160.849" y2="100.897" gradientUnits="userSpaceOnUse">
<stop stop-color="#FF7F00"/>
<stop offset="0.338384" stop-color="#CC5CBE"/>
<stop offset="0.666667" stop-color="#0068FF"/>
<stop offset="0.994382" stop-color="#00C8E1"/>
<stop offset="1" stop-color="#00C8E1"/>
</linearGradient>
<linearGradient id="paint1_linear_37_938" x1="22.0557" y1="58.3452" x2="102.452" y2="138.62" gradientUnits="userSpaceOnUse">
<stop stop-color="#FF7F00"/>
<stop offset="0.338384" stop-color="#CC5CBE"/>
<stop offset="0.666667" stop-color="#0068FF"/>
<stop offset="0.994382" stop-color="#00C8E1"/>
<stop offset="1" stop-color="#00C8E1"/>
</linearGradient>
<linearGradient id="paint2_linear_37_938" x1="26.0083" y1="54.3866" x2="106.405" y2="134.662" gradientUnits="userSpaceOnUse">
<stop stop-color="#FF7F00"/>
<stop offset="0.338384" stop-color="#CC5CBE"/>
<stop offset="0.666667" stop-color="#0068FF"/>
<stop offset="0.994382" stop-color="#00C8E1"/>
<stop offset="1" stop-color="#00C8E1"/>
</linearGradient>
<linearGradient id="paint3_linear_37_938" x1="30.3195" y1="50.0688" x2="110.716" y2="130.344" gradientUnits="userSpaceOnUse">
<stop stop-color="#FF7F00"/>
<stop offset="0.338384" stop-color="#CC5CBE"/>
<stop offset="0.666667" stop-color="#0068FF"/>
<stop offset="0.994382" stop-color="#00C8E1"/>
<stop offset="1" stop-color="#00C8E1"/>
</linearGradient>
<linearGradient id="paint4_linear_37_938" x1="33.4816" y1="46.902" x2="113.878" y2="127.177" gradientUnits="userSpaceOnUse">
<stop stop-color="#FF7F00"/>
<stop offset="0.338384" stop-color="#CC5CBE"/>
<stop offset="0.666667" stop-color="#0068FF"/>
<stop offset="0.994382" stop-color="#00C8E1"/>
<stop offset="1" stop-color="#00C8E1"/>
</linearGradient>
<linearGradient id="paint5_linear_37_938" x1="36.4173" y1="43.9618" x2="116.814" y2="124.237" gradientUnits="userSpaceOnUse">
<stop stop-color="#FF7F00"/>
<stop offset="0.338384" stop-color="#CC5CBE"/>
<stop offset="0.666667" stop-color="#0068FF"/>
<stop offset="0.994382" stop-color="#00C8E1"/>
<stop offset="1" stop-color="#00C8E1"/>
</linearGradient>
<linearGradient id="paint6_linear_37_938" x1="39.7007" y1="40.6735" x2="120.097" y2="120.949" gradientUnits="userSpaceOnUse">
<stop stop-color="#FF7F00"/>
<stop offset="0.338384" stop-color="#CC5CBE"/>
<stop offset="0.666667" stop-color="#0068FF"/>
<stop offset="0.994382" stop-color="#00C8E1"/>
<stop offset="1" stop-color="#00C8E1"/>
</linearGradient>
<linearGradient id="paint7_linear_37_938" x1="43.9212" y1="36.4467" x2="124.318" y2="116.722" gradientUnits="userSpaceOnUse">
<stop stop-color="#FF7F00"/>
<stop offset="0.338384" stop-color="#CC5CBE"/>
<stop offset="0.666667" stop-color="#0068FF"/>
<stop offset="0.994382" stop-color="#00C8E1"/>
<stop offset="1" stop-color="#00C8E1"/>
</linearGradient>
<linearGradient id="paint8_linear_37_938" x1="47.2873" y1="33.0756" x2="127.684" y2="113.351" gradientUnits="userSpaceOnUse">
<stop stop-color="#FF7F00"/>
<stop offset="0.338384" stop-color="#CC5CBE"/>
<stop offset="0.666667" stop-color="#0068FF"/>
<stop offset="0.994382" stop-color="#00C8E1"/>
<stop offset="1" stop-color="#00C8E1"/>
</linearGradient>
<linearGradient id="paint9_linear_37_938" x1="50.9523" y1="29.4048" x2="131.349" y2="109.68" gradientUnits="userSpaceOnUse">
<stop stop-color="#FF7F00"/>
<stop offset="0.338384" stop-color="#CC5CBE"/>
<stop offset="0.666667" stop-color="#0068FF"/>
<stop offset="0.994382" stop-color="#00C8E1"/>
<stop offset="1" stop-color="#00C8E1"/>
</linearGradient>
<linearGradient id="paint10_linear_37_938" x1="54.2033" y1="26.1488" x2="134.6" y2="106.424" gradientUnits="userSpaceOnUse">
<stop stop-color="#FF7F00"/>
<stop offset="0.338384" stop-color="#CC5CBE"/>
<stop offset="0.666667" stop-color="#0068FF"/>
<stop offset="0.994382" stop-color="#00C8E1"/>
<stop offset="1" stop-color="#00C8E1"/>
</linearGradient>
<linearGradient id="paint11_linear_37_938" x1="57.7847" y1="22.5622" x2="138.181" y2="102.837" gradientUnits="userSpaceOnUse">
<stop stop-color="#FF7F00"/>
<stop offset="0.338384" stop-color="#CC5CBE"/>
<stop offset="0.666667" stop-color="#0068FF"/>
<stop offset="0.994382" stop-color="#00C8E1"/>
<stop offset="1" stop-color="#00C8E1"/>
</linearGradient>
<linearGradient id="paint12_linear_37_938" x1="61.9033" y1="18.4374" x2="142.3" y2="98.7127" gradientUnits="userSpaceOnUse">
<stop stop-color="#FF7F00"/>
<stop offset="0.338384" stop-color="#CC5CBE"/>
<stop offset="0.666667" stop-color="#0068FF"/>
<stop offset="0.994382" stop-color="#00C8E1"/>
<stop offset="1" stop-color="#00C8E1"/>
</linearGradient>
<linearGradient id="paint13_linear_37_938" x1="64.9913" y1="15.3446" x2="145.388" y2="95.6201" gradientUnits="userSpaceOnUse">
<stop stop-color="#FF7F00"/>
<stop offset="0.338384" stop-color="#CC5CBE"/>
<stop offset="0.666667" stop-color="#0068FF"/>
<stop offset="0.994382" stop-color="#00C8E1"/>
<stop offset="1" stop-color="#00C8E1"/>
</linearGradient>
<linearGradient id="paint14_linear_37_938" x1="67.7919" y1="12.5398" x2="148.188" y2="92.8151" gradientUnits="userSpaceOnUse">
<stop stop-color="#FF7F00"/>
<stop offset="0.338384" stop-color="#CC5CBE"/>
<stop offset="0.666667" stop-color="#0068FF"/>
<stop offset="0.994382" stop-color="#00C8E1"/>
<stop offset="1" stop-color="#00C8E1"/>
</linearGradient>
<linearGradient id="paint15_linear_37_938" x1="10.0352" y1="70.3836" x2="90.4316" y2="150.659" gradientUnits="userSpaceOnUse">
<stop stop-color="#FF7F00"/>
<stop offset="0.338384" stop-color="#CC5CBE"/>
<stop offset="0.666667" stop-color="#0068FF"/>
<stop offset="0.994382" stop-color="#00C8E1"/>
<stop offset="1" stop-color="#00C8E1"/>
</linearGradient>
<linearGradient id="paint16_linear_37_938" x1="15.7168" y1="64.6936" x2="96.1132" y2="144.969" gradientUnits="userSpaceOnUse">
<stop stop-color="#FF7F00"/>
<stop offset="0.338384" stop-color="#CC5CBE"/>
<stop offset="0.666667" stop-color="#0068FF"/>
<stop offset="0.994382" stop-color="#00C8E1"/>
<stop offset="1" stop-color="#00C8E1"/>
</linearGradient>
<linearGradient id="paint17_linear_37_938" x1="20.0591" y1="60.3449" x2="100.455" y2="140.62" gradientUnits="userSpaceOnUse">
<stop stop-color="#FF7F00"/>
<stop offset="0.338384" stop-color="#CC5CBE"/>
<stop offset="0.666667" stop-color="#0068FF"/>
<stop offset="0.994382" stop-color="#00C8E1"/>
<stop offset="1" stop-color="#00C8E1"/>
</linearGradient>
<linearGradient id="paint18_linear_37_938" x1="24.0124" y1="56.3854" x2="104.409" y2="136.661" gradientUnits="userSpaceOnUse">
<stop stop-color="#FF7F00"/>
<stop offset="0.338384" stop-color="#CC5CBE"/>
<stop offset="0.666667" stop-color="#0068FF"/>
<stop offset="0.994382" stop-color="#00C8E1"/>
<stop offset="1" stop-color="#00C8E1"/>
</linearGradient>
<linearGradient id="paint19_linear_37_938" x1="26.2731" y1="54.1213" x2="106.669" y2="134.397" gradientUnits="userSpaceOnUse">
<stop stop-color="#FF7F00"/>
<stop offset="0.338384" stop-color="#CC5CBE"/>
<stop offset="0.666667" stop-color="#0068FF"/>
<stop offset="0.994382" stop-color="#00C8E1"/>
<stop offset="1" stop-color="#00C8E1"/>
</linearGradient>
<linearGradient id="paint20_linear_37_938" x1="30.4243" y1="49.9639" x2="110.821" y2="130.239" gradientUnits="userSpaceOnUse">
<stop stop-color="#FF7F00"/>
<stop offset="0.338384" stop-color="#CC5CBE"/>
<stop offset="0.666667" stop-color="#0068FF"/>
<stop offset="0.994382" stop-color="#00C8E1"/>
<stop offset="1" stop-color="#00C8E1"/>
</linearGradient>
<linearGradient id="paint21_linear_37_938" x1="30.3405" y1="54.1213" x2="108.016" y2="155.258" gradientUnits="userSpaceOnUse">
<stop stop-color="#FF7F00"/>
<stop offset="0.338384" stop-color="#CC5CBE"/>
<stop offset="0.666667" stop-color="#0068FF"/>
<stop offset="0.994382" stop-color="#00C8E1"/>
<stop offset="1" stop-color="#00C8E1"/>
</linearGradient>
<linearGradient id="paint22_linear_37_938" x1="38.0193" y1="42.3573" x2="118.416" y2="122.633" gradientUnits="userSpaceOnUse">
<stop stop-color="#FF7F00"/>
<stop offset="0.338384" stop-color="#CC5CBE"/>
<stop offset="0.666667" stop-color="#0068FF"/>
<stop offset="0.994382" stop-color="#00C8E1"/>
<stop offset="1" stop-color="#00C8E1"/>
</linearGradient>
<linearGradient id="paint23_linear_37_938" x1="43.0707" y1="37.2984" x2="123.467" y2="117.574" gradientUnits="userSpaceOnUse">
<stop stop-color="#FF7F00"/>
<stop offset="0.338384" stop-color="#CC5CBE"/>
<stop offset="0.666667" stop-color="#0068FF"/>
<stop offset="0.994382" stop-color="#00C8E1"/>
<stop offset="1" stop-color="#00C8E1"/>
</linearGradient>
<linearGradient id="paint24_linear_37_938" x1="51.0536" y1="29.3036" x2="131.45" y2="109.579" gradientUnits="userSpaceOnUse">
<stop stop-color="#FF7F00"/>
<stop offset="0.338384" stop-color="#CC5CBE"/>
<stop offset="0.666667" stop-color="#0068FF"/>
<stop offset="0.994382" stop-color="#00C8E1"/>
<stop offset="1" stop-color="#00C8E1"/>
</linearGradient>
<linearGradient id="paint25_linear_37_938" x1="60.4296" y1="19.9133" x2="140.826" y2="100.189" gradientUnits="userSpaceOnUse">
<stop stop-color="#FF7F00"/>
<stop offset="0.338384" stop-color="#CC5CBE"/>
<stop offset="0.666667" stop-color="#0068FF"/>
<stop offset="0.994382" stop-color="#00C8E1"/>
<stop offset="1" stop-color="#00C8E1"/>
</linearGradient>
<linearGradient id="paint26_linear_37_938" x1="68.232" y1="12.0993" x2="148.628" y2="92.3746" gradientUnits="userSpaceOnUse">
<stop stop-color="#FF7F00"/>
<stop offset="0.338384" stop-color="#CC5CBE"/>
<stop offset="0.666667" stop-color="#0068FF"/>
<stop offset="0.994382" stop-color="#00C8E1"/>
<stop offset="1" stop-color="#00C8E1"/>
</linearGradient>
<linearGradient id="paint27_linear_37_938" x1="65.6026" y1="18.1698" x2="134.167" y2="86.6313" gradientUnits="userSpaceOnUse">
<stop stop-color="#FF7F00"/>
<stop offset="0.338384" stop-color="#CC5CBE"/>
<stop offset="0.666667" stop-color="#0068FF"/>
<stop offset="0.994382" stop-color="#00C8E1"/>
<stop offset="1" stop-color="#00C8E1"/>
</linearGradient>
<linearGradient id="paint28_linear_37_938" x1="57.3663" y1="26.4183" x2="125.931" y2="94.8798" gradientUnits="userSpaceOnUse">
<stop stop-color="#FF7F00"/>
<stop offset="0.338384" stop-color="#CC5CBE"/>
<stop offset="0.666667" stop-color="#0068FF"/>
<stop offset="0.994382" stop-color="#00C8E1"/>
<stop offset="1" stop-color="#00C8E1"/>
</linearGradient>
<linearGradient id="paint29_linear_37_938" x1="51.5495" y1="32.2442" x2="120.114" y2="100.706" gradientUnits="userSpaceOnUse">
<stop stop-color="#FF7F00"/>
<stop offset="0.338384" stop-color="#CC5CBE"/>
<stop offset="0.666667" stop-color="#0068FF"/>
<stop offset="0.994382" stop-color="#00C8E1"/>
<stop offset="1" stop-color="#00C8E1"/>
</linearGradient>
<linearGradient id="paint30_linear_37_938" x1="60.5474" y1="23.2326" x2="129.112" y2="91.6942" gradientUnits="userSpaceOnUse">
<stop stop-color="#FF7F00"/>
<stop offset="0.338384" stop-color="#CC5CBE"/>
<stop offset="0.666667" stop-color="#0068FF"/>
<stop offset="0.994382" stop-color="#00C8E1"/>
<stop offset="1" stop-color="#00C8E1"/>
</linearGradient>
<linearGradient id="paint31_linear_37_938" x1="58.641" y1="25.1418" x2="127.206" y2="93.6034" gradientUnits="userSpaceOnUse">
<stop stop-color="#FF7F00"/>
<stop offset="0.338384" stop-color="#CC5CBE"/>
<stop offset="0.666667" stop-color="#0068FF"/>
<stop offset="0.994382" stop-color="#00C8E1"/>
<stop offset="1" stop-color="#00C8E1"/>
</linearGradient>
<linearGradient id="paint32_linear_37_938" x1="54.17" y1="29.6194" x2="122.735" y2="98.0809" gradientUnits="userSpaceOnUse">
<stop stop-color="#FF7F00"/>
<stop offset="0.338384" stop-color="#CC5CBE"/>
<stop offset="0.666667" stop-color="#0068FF"/>
<stop offset="0.994382" stop-color="#00C8E1"/>
<stop offset="1" stop-color="#00C8E1"/>
</linearGradient>
<linearGradient id="paint33_linear_37_938" x1="68.3611" y1="15.4071" x2="136.926" y2="83.8685" gradientUnits="userSpaceOnUse">
<stop stop-color="#FF7F00"/>
<stop offset="0.338384" stop-color="#CC5CBE"/>
<stop offset="0.666667" stop-color="#0068FF"/>
<stop offset="0.994382" stop-color="#00C8E1"/>
<stop offset="1" stop-color="#00C8E1"/>
</linearGradient>
<linearGradient id="paint34_linear_37_938" x1="61.1019" y1="22.6771" x2="129.667" y2="91.1386" gradientUnits="userSpaceOnUse">
<stop stop-color="#FF7F00"/>
<stop offset="0.338384" stop-color="#CC5CBE"/>
<stop offset="0.666667" stop-color="#0068FF"/>
<stop offset="0.994382" stop-color="#00C8E1"/>
<stop offset="1" stop-color="#00C8E1"/>
</linearGradient>
<clipPath id="clip0_37_938">
<rect width="148" height="99" fill="white"/>
</clipPath>
</defs>
</svg>
