<svg width="40" height="41" viewBox="0 0 40 41" fill="none" xmlns="http://www.w3.org/2000/svg">
<path fill-rule="evenodd" clip-rule="evenodd" d="M14.779 1.59105C14.0954 1.93176 13.7502 2.53113 13.7502 3.37738V3.8877H13.254C12.6871 3.8877 12.3544 4.05918 12.0529 4.5066C11.8857 4.75465 11.8752 4.84715 11.8752 6.0752C11.8752 7.30324 11.8857 7.39574 12.0529 7.64379C12.3531 8.08941 12.6876 8.2627 13.2474 8.2627H13.7372L13.7632 9.18723C13.7878 10.0578 13.8031 10.134 14.0257 10.4937C14.1718 10.7298 14.4082 10.9661 14.6442 11.1122C15.0232 11.3468 15.0365 11.3489 16.31 11.3736C17.5859 11.3982 17.5935 11.3995 17.548 11.5689C17.5229 11.6625 17.5019 12.082 17.5013 12.501L17.5002 13.2627H17.004C16.4371 13.2627 16.1044 13.4342 15.8029 13.8816C15.6357 14.1296 15.6252 14.2221 15.6252 15.4502C15.6252 16.6782 15.6357 16.7707 15.8029 17.0188C16.1028 17.4639 16.4378 17.6377 16.9955 17.6377H17.4833L17.5126 18.5166C17.5368 19.2383 17.5744 19.4618 17.7234 19.7666L17.9047 20.1377L17.7237 20.5088C17.6006 20.7611 17.5331 21.0613 17.5129 21.4463L17.4831 22.0127H16.9954C16.4378 22.0127 16.1027 22.1866 15.8029 22.6316C15.6357 22.8796 15.6252 22.9721 15.6252 24.2002C15.6252 25.4282 15.6357 25.5207 15.8029 25.7688C16.1044 26.2162 16.4371 26.3877 17.004 26.3877H17.5002L17.5013 27.4619C17.5019 28.0528 17.5229 28.6129 17.548 28.7065C17.5935 28.8759 17.5859 28.8771 16.31 28.9018C15.0365 28.9265 15.0232 28.9286 14.6442 29.1632C14.062 29.5236 13.7964 30.0089 13.7615 30.7761L13.7336 31.3877H13.2457C12.6878 31.3877 12.3528 31.5615 12.0529 32.0066C11.8857 32.2546 11.8752 32.3471 11.8752 33.5752C11.8752 34.8032 11.8857 34.8957 12.0529 35.1438C12.3531 35.5894 12.6876 35.7627 13.2474 35.7627H13.7372L13.7632 36.6872C13.7878 37.5578 13.8031 37.634 14.0257 37.9937C14.172 38.23 14.4079 38.4659 14.6445 38.6122L15.0269 38.8486L19.3208 38.8701C23.5348 38.8912 23.621 38.8886 23.9509 38.7289C24.7294 38.352 25.0783 37.6471 25.0783 36.4516V35.7627H25.5744C25.9972 35.7627 26.1165 35.7294 26.3815 35.5375C26.8561 35.1936 26.9143 34.975 26.9143 33.5361C26.9143 32.4159 26.8976 32.2578 26.7538 32.0129C26.4926 31.5683 26.152 31.3877 25.5746 31.3877H25.0783L25.0749 31.0947C25.073 30.9336 25.0426 30.6523 25.0073 30.4697L24.9431 30.1377H26.1579C27.5457 30.1377 27.8179 30.0587 28.3112 29.5128C28.7087 29.0729 28.8283 28.5813 28.8283 27.3891V26.3877H29.3244C29.7472 26.3877 29.8665 26.3544 30.1315 26.1625C30.6061 25.8186 30.6643 25.6 30.6643 24.1611C30.6643 23.0409 30.6476 22.8828 30.5038 22.6379C30.2444 22.1965 29.9012 22.0127 29.3358 22.0127H28.8508L28.7994 21.4463C28.768 21.1019 28.6765 20.7344 28.5657 20.5088L28.3835 20.1377L28.5718 19.7573C28.7233 19.4511 28.769 19.2071 28.8058 18.5073L28.8518 17.6377H29.3362C29.746 17.6377 29.8683 17.603 30.1315 17.4125C30.6061 17.0686 30.6643 16.85 30.6643 15.4111C30.6643 14.2909 30.6476 14.1328 30.5038 13.8879C30.2426 13.4433 29.902 13.2627 29.3246 13.2627H28.8283V12.5738C28.8283 11.3804 28.4792 10.6733 27.705 10.2985C27.4133 10.1573 27.2246 10.1377 26.1579 10.1377H24.9431L25.0073 9.80566C25.0426 9.62301 25.073 9.20121 25.0749 8.86816L25.0783 8.2627H25.5744C25.9972 8.2627 26.1165 8.22941 26.3815 8.03746C26.8561 7.69363 26.9143 7.47496 26.9143 6.03613C26.9143 4.9159 26.8976 4.75777 26.7538 4.51293C26.4926 4.06832 26.152 3.8877 25.5746 3.8877H25.0783V3.51129C25.0783 2.63918 24.6454 1.88277 23.955 1.54848C23.6322 1.39223 23.503 1.3877 19.405 1.3877H15.1872L14.779 1.59105ZM15.4154 2.71527C15.1466 2.82535 15.0783 3.04488 15.0783 3.79934C15.0783 5.00129 14.9659 5.1316 13.926 5.1352L13.2033 5.1377V6.0752V7.0127H13.9116C14.3011 7.0127 14.6842 7.04715 14.7628 7.08918C15.0008 7.21652 15.0783 7.61129 15.0783 8.69535C15.0783 9.59738 15.0975 9.75332 15.2277 9.91418L15.377 10.0986H19.3751H23.3731L23.5617 9.87941C23.7422 9.66949 23.7502 9.61223 23.7502 8.52824C23.7502 7.43051 23.756 7.39043 23.942 7.20449C24.1188 7.02762 24.1919 7.0127 24.8795 7.0127H25.6252V6.0752V5.1377H24.8795C24.1919 5.1377 24.1188 5.12277 23.942 4.9459C23.7627 4.76668 23.7502 4.70059 23.7502 3.93465C23.7502 3.18105 23.7351 3.09754 23.5617 2.89598L23.3732 2.67676L19.4797 2.66105C17.3283 2.65238 15.5097 2.67668 15.4154 2.71527ZM30.1844 7.0902C29.9508 7.18441 29.7658 7.47395 29.7658 7.74527C29.7658 7.93199 29.8904 8.09113 30.4399 8.60676C33.3081 11.298 34.9221 15.4245 34.9221 20.0667C34.9221 22.1726 34.6608 23.9447 34.0896 25.7117C33.314 28.1109 32.2639 29.8557 30.6151 31.4843C29.9259 32.1651 29.7658 32.3656 29.7658 32.548C29.7658 33.0067 30.2748 33.3694 30.6464 33.1756C30.9878 32.9975 31.8013 32.2272 32.3948 31.52C34.3178 29.229 35.5344 26.3904 36.0678 22.9502C36.2634 21.6885 36.264 18.5941 36.0689 17.3252C35.5429 13.9048 34.3172 11.0457 32.3948 8.75535C31.6123 7.82301 30.6722 6.9977 30.4155 7.01762C30.3804 7.02035 30.2765 7.05301 30.1844 7.0902ZM7.92123 9.03652C7.61217 9.22496 7.54951 9.31816 6.4981 11.1544C5.56787 12.779 5.50248 12.981 5.73279 13.5191C5.98873 14.1174 6.04709 14.1407 9.38224 14.9827C11.0756 15.4102 12.6229 15.7606 12.8207 15.7613C13.2159 15.7629 13.5843 15.563 13.8516 15.2021C14.0707 14.9063 14.1158 14.2951 13.9433 13.9614C13.7739 13.6339 9.42779 9.15324 9.13013 8.99934C8.82107 8.83957 8.21357 8.85816 7.92123 9.03652ZM7.75677 11.5993C7.31779 12.3596 6.96701 12.9899 6.97717 13C7.00662 13.0295 12.6124 14.4265 12.6301 14.4089C12.6485 14.3905 8.66068 10.2646 8.59693 10.236C8.57381 10.2257 8.19576 10.8391 7.75677 11.5993ZM19.1654 11.4653C18.8807 11.5818 18.8283 11.7986 18.8283 12.8618C18.8283 14.4091 18.7603 14.5064 17.676 14.5102L16.9533 14.5127V15.4502V16.3877H17.6616C18.0511 16.3877 18.4342 16.4221 18.5128 16.4642C18.7508 16.5915 18.8283 16.9863 18.8283 18.0704C18.8283 18.9724 18.8475 19.1283 18.9777 19.2892L19.127 19.4736H23.1251H27.1231L27.3117 19.2544C27.4922 19.0445 27.5002 18.9872 27.5002 17.9032C27.5002 16.8055 27.506 16.7654 27.692 16.5795C27.8688 16.4026 27.9419 16.3877 28.6295 16.3877H29.3752V15.4502V14.5127H28.6295C27.9419 14.5127 27.8688 14.4978 27.692 14.3209C27.506 14.135 27.5002 14.0949 27.5002 12.9971C27.5002 11.9132 27.4922 11.8558 27.3117 11.646L27.1232 11.4268L23.2297 11.4111C21.0783 11.4024 19.2597 11.4267 19.1654 11.4653ZM4.48467 17.3178C4.30857 17.3978 4.08006 17.5816 3.97685 17.7262C3.7917 17.9859 3.78896 18.0157 3.76748 20.0596C3.74318 22.3724 3.76529 22.4895 4.2942 22.8507C4.80506 23.1994 4.84896 23.1924 8.26521 22.217C10.0144 21.7176 11.5334 21.245 11.6408 21.167C12.2566 20.7194 12.2566 19.5557 11.6408 19.1086C11.4347 18.9589 5.27709 17.1677 4.97881 17.1707C4.88318 17.1716 4.66076 17.2379 4.48467 17.3178ZM5.07834 20.1377V21.7661L5.56662 21.6238C5.83521 21.5455 7.08318 21.1898 8.34006 20.8333C9.59693 20.4768 10.6252 20.1638 10.6252 20.1377C10.6252 20.1116 9.59693 19.7986 8.34006 19.4421C7.08318 19.0856 5.83521 18.7299 5.56662 18.6516L5.07834 18.5093V20.1377ZM19.1654 20.8403C18.8966 20.9504 18.8283 21.1699 18.8283 21.9243C18.8283 23.1263 18.7159 23.2566 17.676 23.2602L16.9533 23.2627V24.2002V25.1377H17.6616C18.0511 25.1377 18.4342 25.1721 18.5128 25.2142C18.7645 25.3489 18.8283 25.737 18.8283 27.1329C18.8283 28.3426 18.8436 28.4986 18.9777 28.6642L19.127 28.8486H23.1251H27.1231L27.3117 28.6294C27.4963 28.4148 27.5002 28.3801 27.5002 26.9657C27.5002 25.5362 27.5022 25.5193 27.692 25.3295C27.8688 25.1526 27.9419 25.1377 28.6295 25.1377H29.3752V24.2002V23.2627H28.6295C27.9419 23.2627 27.8688 23.2478 27.692 23.0709C27.5127 22.8917 27.5002 22.8256 27.5002 22.0597C27.5002 21.3061 27.4851 21.2225 27.3117 21.021L27.1232 20.8018L23.2297 20.7861C21.0783 20.7774 19.2597 20.8017 19.1654 20.8403ZM9.34584 25.2954C6.67037 25.9732 6.28115 26.091 6.07717 26.2848C5.38787 26.94 5.44052 27.2803 6.52404 29.1704C7.50724 30.8857 7.66326 31.1125 7.96912 31.2706C8.25506 31.4185 8.84857 31.4217 9.12857 31.2768C9.41521 31.1286 13.7728 26.6436 13.9351 26.3296C14.3597 25.5086 13.7194 24.5037 12.7816 24.5193C12.5554 24.5232 11.0694 24.8588 9.34584 25.2954ZM9.84396 26.5373C8.36154 26.9125 7.10592 27.2346 7.05357 27.2529C6.99326 27.274 7.24584 27.7849 7.74607 28.6533C8.1792 29.4053 8.54217 30.0301 8.55256 30.0418C8.56998 30.0614 9.70209 28.9151 11.8333 26.7197C12.3026 26.2364 12.6534 25.844 12.6129 25.8479C12.5724 25.8518 11.3264 26.1621 9.84396 26.5373ZM15.4154 30.2153C15.1466 30.3254 15.0783 30.5449 15.0783 31.2993C15.0783 32.5013 14.9659 32.6316 13.926 32.6352L13.2033 32.6377V33.5752V34.5127H13.9116C14.3011 34.5127 14.6842 34.5471 14.7628 34.5892C15.0008 34.7165 15.0783 35.1113 15.0783 36.1954C15.0783 37.0974 15.0975 37.2533 15.2277 37.4142L15.377 37.5986H19.3751H23.3731L23.5617 37.3794C23.7422 37.1695 23.7502 37.1122 23.7502 36.0282C23.7502 34.9305 23.756 34.8904 23.942 34.7045C24.1188 34.5276 24.1919 34.5127 24.8795 34.5127H25.6252V33.5752V32.6377H24.8795C24.1919 32.6377 24.1188 32.6228 23.942 32.4459C23.7627 32.2667 23.7502 32.2006 23.7502 31.4347C23.7502 30.6811 23.7351 30.5975 23.5617 30.396L23.3732 30.1768L19.4797 30.1611C17.3283 30.1524 15.5097 30.1767 15.4154 30.2153Z" fill="#00C8E1"/>
</svg>
