<svg width="26" height="33" viewBox="0 0 26 33" fill="none" xmlns="http://www.w3.org/2000/svg">
<path fill-rule="evenodd" clip-rule="evenodd" d="M11.9728 4.23247C11.258 4.42513 10.6912 4.75352 10.1554 5.28577C9.75189 5.68657 9.63081 5.85116 9.41364 6.2939C9.27094 6.58492 9.11755 6.99847 9.07277 7.21291C8.90662 8.00916 8.99875 9.01746 9.30815 9.79043C9.61905 10.5669 9.88958 10.8849 12.2808 13.284L14.557 15.5676L14.9601 15.1652L15.3632 14.7627L13.0775 12.4638C11.4603 10.8371 10.7335 10.0672 10.5919 9.8307C10.3212 9.37877 10.1613 8.87766 10.1238 8.36418C10.0212 6.9596 10.8862 5.72918 12.2273 5.37227C12.5752 5.27964 13.3631 5.26872 13.7222 5.35144C14.4568 5.5207 15.2634 6.15315 15.5768 6.80554C16.0392 7.76838 15.9762 8.88852 15.4067 9.82825C15.2961 10.0107 14.8482 10.5263 14.4113 10.9739L13.6171 11.7878L13.9921 12.1599C14.1984 12.3646 14.394 12.532 14.4268 12.532C14.546 12.532 16.0636 10.9196 16.3333 10.5064C16.8359 9.73652 17.1146 8.70572 17.0476 7.8648C17.0006 7.2749 16.8825 6.85048 16.6102 6.2939C16.4221 5.90942 16.2836 5.72539 15.8727 5.31445C15.0327 4.47414 14.1626 4.12102 12.944 4.12603C12.5545 4.12759 12.2302 4.16318 11.9728 4.23247ZM12.6197 6.1307C11.9706 6.25842 11.437 6.66774 11.1623 7.24867C10.8659 7.87532 10.8916 8.50682 11.2425 9.21803C11.4004 9.5379 11.5754 9.74777 12.2173 10.387L12.9997 11.1659L13.7822 10.387C14.4241 9.74777 14.5991 9.5379 14.7569 9.21803C15.1078 8.50682 15.1336 7.87532 14.8372 7.24867C14.5535 6.64875 14.0321 6.2592 13.3362 6.12725C13.0031 6.06409 12.9572 6.06431 12.6197 6.1307ZM4.24199 12.1959C3.42608 12.3451 2.75414 12.6962 2.16107 13.2831C1.67277 13.7664 1.38531 14.2214 1.14665 14.8886C1.01693 15.2513 1.00317 15.3706 1.00038 16.1524C0.997488 16.9593 1.00751 17.0448 1.1535 17.4613C1.61451 18.7767 2.57942 19.6901 3.89633 20.0578C4.51586 20.2308 5.44178 20.2308 6.06537 20.0577C6.63143 19.9006 7.19147 19.6243 7.65276 19.2745C7.85187 19.1235 9.00465 18.0084 10.2145 16.7965L12.4142 14.5931L12.0118 14.1907L11.6094 13.7883L9.19943 16.1845C7.23001 18.1426 6.72834 18.6123 6.45525 18.7543C5.2792 19.3653 3.89561 19.1718 2.97738 18.2677C2.57568 17.8722 2.33429 17.4513 2.19354 16.9011C2.00684 16.171 2.06867 15.57 2.4023 14.8713C3.09952 13.4116 4.92808 12.8348 6.44189 13.5972C6.70862 13.7315 7.00026 13.9805 7.69609 14.6679L8.60279 15.5634L9.00437 15.1619L9.40595 14.7602L8.6547 14.0038C7.57929 12.921 7.07456 12.5881 6.08353 12.3081C5.62424 12.1783 4.65945 12.1195 4.24199 12.1959ZM20.324 12.2024C19.6843 12.3288 19.023 12.5973 18.5138 12.9371C18.376 13.0291 17.2168 14.1469 15.938 15.421L13.6128 17.7376L14.015 18.1425L14.4172 18.5473L16.8136 16.1582C18.87 14.1081 19.2593 13.7445 19.5576 13.5956C21.0781 12.8367 22.9002 13.4121 23.5972 14.8713C23.9308 15.57 23.9926 16.171 23.8059 16.9011C23.3301 18.7615 21.2626 19.6616 19.5487 18.7545C19.308 18.6271 18.9474 18.3184 18.3022 17.6873L17.3943 16.7994L16.9939 17.1998L16.5936 17.6002L17.2891 18.3002C18.0623 19.0783 18.4888 19.4237 18.9869 19.6753C19.7472 20.0594 20.6751 20.2587 21.3734 20.1879C23.0273 20.0203 24.3009 19.0202 24.8455 17.4613C24.9896 17.049 25.0011 16.9533 24.9999 16.1802C24.9988 15.4229 24.9847 15.3031 24.8489 14.8992C24.632 14.2541 24.3408 13.7906 23.8301 13.2778C23.3402 12.7861 22.7628 12.4511 22.1063 12.2779C21.6969 12.1698 20.7018 12.1277 20.324 12.2024ZM4.35812 14.176C4.04989 14.2746 3.6032 14.5983 3.36949 14.8923C3.00166 15.3551 2.84871 16.0724 2.99548 16.6454C3.34002 17.9903 4.7445 18.6304 6.00082 18.0153C6.21614 17.9098 6.53835 17.6298 7.15554 17.0116L8.01156 16.1542L7.13755 15.2949C6.06927 14.2445 5.87678 14.1312 5.12163 14.1083C4.78917 14.0983 4.52889 14.1213 4.35812 14.176ZM20.3797 14.1663C19.9229 14.3176 19.7066 14.4829 18.8686 15.3212L18.0098 16.1802L18.8884 17.0472C19.5047 17.6552 19.8486 17.9517 20.0401 18.0401C20.9068 18.44 21.8927 18.2528 22.5168 17.57C23.2632 16.7533 23.2377 15.4895 22.4589 14.7066C22.0931 14.3389 21.6004 14.1299 21.0506 14.1093C20.7822 14.0993 20.5131 14.1221 20.3797 14.1663ZM12.5112 15.6662C12.2591 15.9196 12.0529 16.152 12.0529 16.1826C12.0529 16.2133 12.2659 16.4503 12.5263 16.7094L12.9997 17.1804L13.4732 16.7094C13.7336 16.4503 13.9466 16.2122 13.9466 16.1802C13.9466 16.1234 13.0527 15.2055 12.9973 15.2055C12.982 15.2055 12.7632 15.4128 12.5112 15.6662ZM11.0087 17.1678L10.6057 17.5707L12.9919 19.9667C15.5737 22.5591 15.6407 22.6404 15.8412 23.4241C15.9806 23.9694 15.9807 24.3202 15.8415 24.8644C15.6957 25.4345 15.4935 25.7958 15.0884 26.2105C14.5267 26.7853 13.8247 27.0702 12.9757 27.0677C11.904 27.0646 10.969 26.5219 10.4386 25.5948C10.2353 25.2396 10.0478 24.5437 10.0478 24.145C10.0478 23.742 10.2357 23.0504 10.4468 22.6772C10.557 22.4823 10.9593 22.0229 11.5048 21.4691L12.3849 20.5755L11.9804 20.1736L11.5757 19.7716L10.7649 20.5937C9.88779 21.4829 9.68962 21.7396 9.40673 22.3529C8.91392 23.4216 8.86279 24.6722 9.26805 25.7493C9.65024 26.7654 10.5822 27.6319 11.6897 28.001C12.097 28.1368 12.2125 28.1499 12.9997 28.1499C13.787 28.1499 13.9024 28.1368 14.3098 28.001C16.05 27.4211 17.1208 25.8085 16.9924 23.9613C16.9301 23.0649 16.6106 22.1908 16.1028 21.5272C15.9621 21.3434 14.849 20.1967 13.6293 18.9789L11.4116 16.7648L11.0087 17.1678ZM12.0715 22.126C11.0255 23.186 10.9229 23.3663 10.9229 24.145C10.9229 24.9813 11.342 25.6514 12.0978 26.0235C12.4379 26.1909 12.5119 26.2058 12.9997 26.2058C13.4876 26.2058 13.5616 26.1909 13.9017 26.0235C14.6575 25.6514 15.0765 24.9813 15.0765 24.145C15.0765 23.3663 14.9739 23.186 13.9279 22.126C13.4367 21.6282 13.019 21.2209 12.9997 21.2209C12.9805 21.2209 12.5627 21.6282 12.0715 22.126Z" fill="white"/>
</svg>
